<svg xmlns="http://www.w3.org/2000/svg" viewBox="0 0 22 22" width="22" height="22">
	<defs>
		<clipPath clipPathUnits="userSpaceOnUse" id="cp1">
			<path d="M-52 -304L1388 -304L1388 720L-52 720Z" />
		</clipPath>
	</defs>
	<style>
		tspan { white-space:pre }
		.shp0 { fill: none;stroke: #6b60f1;stroke-width: 3 } 
	</style>
	<g id="Page1 Overveiw" clip-path="url(#cp1)">
		<g id="Group 6">
			<g id="experiences">
				<path id="Combined Shape" fill-rule="evenodd" class="shp0" d="M0 22L0 2.58L5.16 2.58L5.16 0L16.84 0L16.84 2.58L22 2.58L22 22L0 22ZM16.84 20.71L20.71 20.71L20.71 3.87L16.84 3.87L16.84 20.71ZM14.27 12.85L14.27 20.71L15.55 20.71L15.55 1.29L6.44 1.29L6.44 20.71L7.73 20.71L7.73 12.85L14.27 12.85ZM11.64 20.71L12.98 20.71L12.98 16.71L11.64 16.71L11.64 20.71ZM9.02 20.71L10.36 20.71L10.36 16.71L9.02 16.71L9.02 20.71ZM1.29 20.71L5.16 20.71L5.16 3.87L1.29 3.87L1.29 20.71ZM9.02 15.43L12.98 15.43L12.98 14.14L9.02 14.14L9.02 15.43ZM18.13 16.76L18.13 15.47L19.42 15.47L19.42 16.76L18.13 16.76ZM2.58 16.76L2.58 15.47L3.87 15.47L3.87 16.76L2.58 16.76ZM18.13 14.18L18.13 12.89L19.42 12.89L19.42 14.18L18.13 14.18ZM2.58 14.18L2.58 12.89L3.87 12.89L3.87 14.18L2.58 14.18ZM18.13 11.6L18.13 10.31L19.42 10.31L19.42 11.6L18.13 11.6ZM2.58 11.6L2.58 10.31L3.87 10.31L3.87 11.6L2.58 11.6ZM7.73 11.56L7.73 7.73L14.27 7.73L14.27 11.56L7.73 11.56ZM9.02 10.27L12.98 10.27L12.98 9.02L9.02 9.02L9.02 10.27ZM18.13 9.02L18.13 7.73L19.42 7.73L19.42 9.02L18.13 9.02ZM2.58 9.02L2.58 7.73L3.87 7.73L3.87 9.02L2.58 9.02ZM18.13 6.44L18.13 5.16L19.42 5.16L19.42 6.44L18.13 6.44ZM2.58 6.44L2.58 5.16L3.87 5.16L3.87 6.44L2.58 6.44ZM7.73 6.4L7.73 2.58L14.27 2.58L14.27 6.4L7.73 6.4ZM9.02 5.11L12.98 5.11L12.98 3.87L9.02 3.87L9.02 5.11Z" />
			</g>
		</g>
	</g>
</svg>