<svg xmlns="http://www.w3.org/2000/svg" viewBox="0 0 34 29" width="34" height="29">
	<defs>
		<clipPath clipPathUnits="userSpaceOnUse" id="cp1">
			<path d="M-610 -1323L830 -1323L830 518L-610 518Z" />
		</clipPath>
	</defs>
	<style>
		tspan { white-space:pre }
		.shp0 { fill: #1e2e74 } 
	</style>
	<g id="Page 4 Tuition" clip-path="url(#cp1)">
		<g id="noun_Credit Card_3466998">
			<g id="Credit Card-Debit Card-Payment-Hands-Money-Currency">
				<path id="Rectangle 46" class="shp0" d="M26.2 12.36L27.29 12.36L27.29 15.61L26.2 15.61L26.2 12.36Z" />
				<path id="Path 92" class="shp0" d="M18.08 9.11C18.38 9.11 18.62 8.87 18.62 8.57C18.63 8.43 18.57 8.29 18.47 8.2C18.37 8.09 18.23 8.03 18.08 8.03L17.78 8.03C17.87 8.39 17.86 8.76 17.76 9.11L18.08 9.11Z" />
				<path id="Rectangle 47" class="shp0" d="M22.95 14.52L25.12 14.52L25.12 15.61L22.95 15.61L22.95 14.52Z" />
				<path id="Path 93" fill-rule="evenodd" class="shp0" d="M17.04 10.19L18.08 10.19C18.98 10.19 19.7 9.47 19.71 8.57C19.71 7.67 18.98 6.95 18.08 6.95L17.16 6.95C17.04 6.83 16.91 6.73 16.76 6.64L15.41 5.86L28.91 5.86C29.21 5.86 29.45 6.11 29.45 6.4L29.45 17.23C29.45 17.53 29.21 17.77 28.91 17.77L11.59 17.77C11.29 17.77 11.05 17.53 11.05 17.23L11.05 8.83L11.54 8.63L14.6 10.39C14.93 10.58 15.3 10.68 15.68 10.68C15.87 10.68 16.06 10.66 16.24 10.61C16.54 10.53 16.81 10.39 17.04 10.19ZM28.37 9.11L27.29 9.11L27.29 10.19L28.37 10.19L28.37 9.11ZM22.95 8.03L28.37 8.03L28.37 6.95L22.95 6.95L22.95 8.03ZM25.12 9.11L25.12 10.19L26.2 10.19L26.2 9.11L25.12 9.11ZM22.95 10.19L24.04 10.19L24.04 9.11L22.95 9.11L22.95 10.19ZM21.87 15.61C21.87 16.2 22.36 16.69 22.95 16.69L27.29 16.69C27.88 16.69 28.37 16.2 28.37 15.61L28.37 12.36C28.37 11.76 27.88 11.28 27.29 11.28L22.95 11.28C22.36 11.28 21.87 11.76 21.87 12.36L21.87 15.61ZM13.21 13.98L12.13 13.98L12.13 16.15L13.21 16.15L13.21 13.98ZM15.38 13.98L14.29 13.98L14.29 16.15L15.38 16.15L15.38 13.98ZM17.54 13.98L16.46 13.98L16.46 16.15L17.54 16.15L17.54 13.98ZM19.71 13.98L18.62 13.98L18.62 16.15L19.71 16.15L19.71 13.98ZM12.13 11.82L12.13 12.9L19.71 12.9L19.71 11.82L12.13 11.82Z" />
				<path id="Path 94" class="shp0" d="M2.92 6.95C3.02 6.95 3.12 6.97 3.2 7.02L4.62 7.88C5.38 8.33 6.25 8.57 7.13 8.57L7.83 8.57C8.46 8.57 9.07 8.45 9.65 8.22L11.39 7.52C11.54 7.46 11.71 7.48 11.86 7.56L15.14 9.45C15.39 9.6 15.68 9.64 15.96 9.56C16.24 9.49 16.48 9.31 16.62 9.06C16.91 8.54 16.74 7.88 16.22 7.58L11.53 4.87L12.07 3.94L13.54 4.78L20.56 4.78L15.4 1.8C13.91 0.93 12.17 0.56 10.44 0.76L3.53 1.53C3.47 1.54 3.41 1.53 3.36 1.52L0.76 1L0.76 6.95L2.92 6.95Z" />
				<path id="Rectangle 48" class="shp0" d="M22.95 12.36L25.12 12.36L25.12 13.44L22.95 13.44L22.95 12.36Z" />
				<path id="Path 95" class="shp0" d="M33.24 22.1L30.36 22.1C30.26 22.1 30.17 22.08 30.08 22.03L28.66 21.17C27.9 20.72 27.04 20.48 26.15 20.48L25.45 20.48C24.83 20.48 24.22 20.6 23.64 20.83L21.9 21.52C21.84 21.55 21.77 21.56 21.7 21.56L17.91 21.56C17.31 21.56 16.83 22.05 16.83 22.64C16.83 23.24 17.31 23.73 17.91 23.73L23.32 23.73L23.32 24.81L17.63 24.81C17.16 24.81 16.69 24.68 16.28 24.45L10.5 21.11C10.26 20.97 9.96 20.93 9.68 21C9.26 21.12 8.95 21.47 8.89 21.91C8.83 22.34 9.04 22.77 9.42 22.99L16.8 27.25C18.3 28.12 20.04 28.48 21.76 28.29L28.68 27.52C28.72 27.52 28.76 27.52 28.8 27.52L33.24 28.06L33.24 22.1Z" />
			</g>
		</g>
	</g>
</svg>