<svg xmlns="http://www.w3.org/2000/svg" viewBox="0 0 41 49" width="41" height="49">
	<defs>
		<clipPath clipPathUnits="userSpaceOnUse" id="cp1">
			<path d="M-595 -814L845 -814L845 210L-595 210Z" />
		</clipPath>
	</defs>
	<style>
		tspan { white-space:pre }
		.shp0 { fill: #1e2e74 } 
	</style>
	<g id="Page1 Overveiw" clip-path="url(#cp1)">
		<g id="noun_student_670917">
			<g id="Group 3">
				<path id="Path 5" class="shp0" d="M40.83 40.81C40.01 37.96 38.93 36.12 37.84 34.91C35.92 32.76 33.99 32.59 33.41 32.45C31.62 32.04 29.45 32.21 28.29 31.85C28.16 32.99 24.86 36.72 22.7 39.06L21.76 35.45C22.46 35.03 22.62 34.12 22.62 33.35L19.06 33.35C19.06 34.11 19.22 35.02 19.9 35.44L18.98 39.06C16.82 36.72 13.52 32.99 13.39 31.85C12.23 32.21 10.06 32.04 8.27 32.45C7.67 32.59 5.62 32.78 3.64 35.14C2.63 36.35 1.62 38.13 0.85 40.8C0.64 41.54 0.63 42.3 0.81 43.03C0.89 43.36 0.99 43.69 1.15 43.98C3.02 47.52 12.87 48.62 20.83 48.62C20.83 48.62 20.84 48.62 20.84 48.62C20.84 48.62 20.85 48.62 20.85 48.62C28.81 48.62 38.66 47.53 40.53 43.99C40.68 43.71 40.77 43.42 40.86 43.12C41.05 42.37 41.05 41.57 40.83 40.81Z" />
				<path id="Path 6" class="shp0" d="M6.84 7L7.79 7.41L7.71 8.04C7.35 8.1 7.07 8.42 7.07 8.8C7.07 9.14 7.29 9.43 7.6 9.53L7.03 17.56C7 17.89 7.07 18.43 7.18 18.74L7.64 20.14C7.75 20.46 7.92 20.46 8.03 20.14L8.49 18.74C8.6 18.43 8.67 17.89 8.64 17.56L8.07 9.53C8.38 9.43 8.6 9.14 8.6 8.8C8.6 8.42 8.33 8.1 7.96 8.04L7.89 7.45L10.07 8.4L11.14 8.86L11.14 12.98L11.14 12.98C11.03 13.6 10.95 14.23 10.9 14.8C10.71 15.56 10.61 16.35 10.61 17.16L10.63 17.16C10.63 17.17 10.63 17.17 10.62 17.18C10.61 17.18 10.6 17.18 10.59 17.18C9.89 17.3 9.57 18.81 9.87 20.54C10.16 22.12 10.87 23.35 11.54 23.45C12.38 25.71 13.71 27.91 15.36 29.51C16.29 30.42 17.32 31.14 18.42 31.58C19.18 31.88 19.97 32.05 20.78 32.05C21.59 32.05 22.38 31.88 23.14 31.58C24.28 31.13 25.34 30.37 26.3 29.42C27.91 27.82 29.21 25.65 30.03 23.43C30.66 23.24 31.33 22.05 31.6 20.53C31.89 18.89 31.62 17.45 30.98 17.21C31 16.81 31.02 16.4 31.02 15.99C31.01 14.72 30.84 13.56 30.54 12.49L30.54 8.86L31.61 8.4L34.84 7C35.68 6.63 35.68 6.04 34.84 5.67L22.37 0.27C21.53 -0.09 20.15 -0.09 19.31 0.27L6.84 5.67C6 6.04 6 6.63 6.84 7Z" />
			</g>
		</g>
	</g>
</svg>