<svg xmlns="http://www.w3.org/2000/svg" viewBox="0 0 42 42" width="42" height="42">
	<defs>
		<clipPath clipPathUnits="userSpaceOnUse" id="cp1">
			<path d="M-1108 -821L332 -821L332 203L-1108 203Z" />
		</clipPath>
	</defs>
	<style>
		tspan { white-space:pre }
		.shp0 { fill: #1e2e74 } 
	</style>
	<g id="Page1 Overveiw" clip-path="url(#cp1)">
		<g id="noun_Male and Female_2389777">
			<g id="Group 8">
				<g id="Group 5">
					<g id="Group 4">
						<path id="Path 7" class="shp0" d="M5.8 21.27C6.74 18.52 9.3 16.56 12.32 16.56C15.32 16.56 17.88 18.52 18.82 21.25C16.87 21.95 15.08 20.74 15 20.68C14.61 20.41 14.09 20.49 13.8 20.86C13.69 21 11.22 24.03 5.8 21.27Z" />
						<path id="Path 8" class="shp0" d="M19.21 23.56C19.21 27.55 16.13 32.36 12.32 32.36C8.5 32.36 5.42 27.55 5.42 23.56C5.42 23.39 5.43 23.21 5.44 23.04C7.19 23.86 8.7 24.16 9.97 24.16C12.31 24.16 13.86 23.15 14.63 22.49C15.72 23.05 17.43 23.5 19.18 22.97C19.2 23.16 19.21 23.36 19.21 23.56Z" />
					</g>
				</g>
				<g id="Group 6">
					<path id="Path 9" class="shp0" d="M24.65 41.08C24.65 41.56 24.25 41.96 23.77 41.96C23.76 41.96 23.76 41.96 23.76 41.96L0.87 41.96C0.39 41.96 0 41.56 0 41.08C0 36.72 3.54 33.18 7.87 33.18L16.76 33.18C21.03 33.18 24.53 36.63 24.63 40.9C24.64 40.96 24.65 41.02 24.65 41.08Z" />
				</g>
				<g id="Group 7">
					<path id="Path 10" class="shp0" d="M42 25.89C42 26.37 41.61 26.78 41.12 26.78L20.68 26.78C20.19 26.78 19.8 26.4 19.8 25.91C19.8 22.02 22.94 18.87 26.82 18.87L34.98 18.87C38.86 18.87 42 22.02 42 25.89Z" />
				</g>
				<path id="Path 11" class="shp0" d="M31.62 4.67C32.67 5.84 34.23 6.81 36.12 6.89C35.86 10.9 33.54 14.04 30.73 14.04C28.17 14.04 26.02 11.44 25.46 7.97C27.61 7.49 30.1 5.82 31.62 4.67ZM36.03 4.72C34.5 4.58 33.47 3.53 33 2.93L33 0.43C34.65 1.11 35.71 2.6 36.03 4.72ZM30.71 0C30.75 0 30.79 0.01 30.83 0.01L30.83 2.53C29.05 3.94 26.89 5.3 25.34 5.76C25.48 2.1 27.4 0 30.71 0ZM39.89 15.89C39.87 15.93 39.83 16.01 39.74 16.04C33.42 18.4 26.85 17.91 22.06 16.05C21.97 16.01 21.93 15.94 21.91 15.9C21.89 15.86 21.87 15.76 21.91 15.66C22.46 14.35 23.14 12.31 23.79 10.21C24.96 13.74 27.63 16.21 30.73 16.21C33.89 16.21 36.6 13.64 37.74 10C38.49 12.2 39.28 14.3 39.89 15.64C39.93 15.75 39.91 15.84 39.89 15.89Z" />
			</g>
		</g>
	</g>
</svg>