<svg xmlns="http://www.w3.org/2000/svg" viewBox="0 0 34 45" width="34" height="45">
	<defs>
		<clipPath clipPathUnits="userSpaceOnUse" id="cp1">
			<path d="M-605 -379L835 -379L835 1462L-605 1462Z" />
		</clipPath>
	</defs>
	<style>
		tspan { white-space:pre }
		.shp0 { fill: #1e2e74 } 
	</style>
	<g id="Page 4 Tuition" clip-path="url(#cp1)">
		<g id="noun_save water_2121157">
			<g id="Group 37">
				<g id="Group 36">
					<path id="Path 80" fill-rule="evenodd" class="shp0" d="M7.28 25.38C7.28 24.62 8.11 24.2 9.04 23.86C9.27 23.57 9.69 23.31 10.31 23.08C10.99 22.82 11.93 22.6 13.09 22.41C12.08 21.21 11.46 19.66 11.46 17.97C11.46 17.76 11.63 17.6 11.83 17.6C12.03 17.6 12.2 17.76 12.2 17.97C12.2 21.2 14.69 23.86 17.86 24.13C18.37 22.26 17.85 20.55 16.29 19.06C15.96 18.74 15.61 18.46 15.28 18.23C14.55 18.2 13.82 18.01 13.14 17.62C12.26 17.12 11.61 16.36 11.23 15.5C12.17 15.39 13.15 15.56 14.03 16.07C14.69 16.45 15.22 16.96 15.61 17.56C15.99 17.82 16.39 18.14 16.78 18.51C17.24 18.95 17.62 19.42 17.93 19.9C18.35 19.13 19.01 18.47 19.85 18.04C20.76 17.58 21.75 17.45 22.68 17.61C22.26 18.46 21.57 19.18 20.66 19.64C19.83 20.07 18.92 20.21 18.05 20.1C18.77 21.35 18.96 22.72 18.61 24.15C21.93 24.04 24.59 21.31 24.59 17.97C24.59 14.45 21.32 9.88 19.08 7.01C19.06 7.01 19.03 7.01 19.01 7.01C18.95 7.01 18.89 7 18.83 6.96C18.66 6.87 18.6 6.67 18.68 6.5C18.58 6.37 18.48 6.25 18.39 6.14C16.32 8.75 14.28 11.53 13.1 14.26C13.02 14.45 12.81 14.54 12.62 14.46C12.43 14.37 12.35 14.16 12.43 13.97C13.7 11.03 15.91 8.08 18.1 5.32C18.17 5.23 18.28 5.18 18.39 5.18C18.5 5.18 18.61 5.23 18.68 5.32C18.8 5.47 18.93 5.64 19.07 5.81L21.32 1.92C21.41 1.77 21.58 1.7 21.74 1.75C21.62 1.64 21.59 1.45 21.68 1.3L22.03 0.69C22.13 0.51 22.36 0.45 22.53 0.55C22.71 0.65 22.77 0.88 22.67 1.05L22.31 1.67C22.24 1.79 22.12 1.85 21.99 1.85C21.96 1.85 21.92 1.85 21.89 1.84C22.01 1.95 22.04 2.13 21.95 2.28L19.56 6.43C19.99 6.99 20.47 7.61 20.95 8.27L21.3 7.68C21.4 7.5 21.62 7.44 21.8 7.54C21.97 7.65 22.03 7.87 21.93 8.05L21.42 8.93C23.37 11.7 25.32 15.11 25.32 17.97C25.32 19.69 24.69 21.26 23.65 22.47C25.24 22.73 26.76 23.09 27.38 23.76C28.6 24.19 29.22 24.74 29.22 25.38C29.22 26.37 27.98 27.09 25.43 27.6C25.41 27.6 25.38 27.6 25.36 27.6C25.19 27.6 25.04 27.48 25 27.31C24.96 27.11 25.09 26.92 25.29 26.88C28.26 26.29 28.49 25.58 28.49 25.38C28.49 25.21 28.26 24.94 27.65 24.66C27.26 26.35 21.9 26.97 18.25 26.97C14.64 26.97 9.37 26.36 8.86 24.72C8.17 25.02 8.01 25.24 8.01 25.38C8.01 25.66 8.62 26.29 10.94 26.82C11.13 26.87 11.26 27.07 11.21 27.26C11.17 27.43 11.02 27.55 10.85 27.55C10.83 27.55 10.8 27.54 10.77 27.54C8.45 27 7.28 26.28 7.28 25.38ZM9.56 24.46C9.56 24.66 10.05 25.17 11.93 25.62C13.61 26.02 15.86 26.24 18.25 26.24C20.64 26.24 22.88 26.02 24.57 25.62C26.44 25.17 26.94 24.66 26.94 24.46C26.94 24.42 26.93 24.37 26.89 24.31C26.88 24.3 26.87 24.28 26.86 24.27C26.64 23.99 25.83 23.52 23.01 23.12C21.79 24.22 20.17 24.89 18.39 24.89C18.38 24.89 18.37 24.89 18.36 24.89C18.3 24.98 18.19 25.03 18.08 25.03C18.04 25.03 18 25.02 17.96 25.01C17.88 24.98 17.82 24.93 17.78 24.86C16.21 24.73 14.8 24.07 13.71 23.06C10.43 23.52 9.56 24.18 9.56 24.46Z" />
					<path id="Path 81" fill-rule="evenodd" class="shp0" d="M28.3 36.96C25.92 38.4 22.62 40.01 20.99 40.13C20.71 40.15 20.45 40.16 20.19 40.16C18.6 40.16 17.45 39.78 16.32 39.42C14.42 38.81 12.77 38.28 9.33 39.62C9.52 40.16 9.57 40.6 9.42 40.94C9.07 41.71 3.86 43.81 2.66 44.52C2.13 44.82 1.86 44.98 1.66 44.42C0.93 42.26 1.59 38.77 0.96 36.22C0.75 35.42 0.45 34.7 0.7 34.19C0.96 33.63 2.8 32.83 3.47 32.5C3.83 32.32 4.29 32.13 4.91 32.57C4.93 32.54 4.96 32.51 5 32.48C8.05 30.72 10.23 29.73 11.68 29.44C13.8 29.02 19.74 29.52 22.3 31.3C23.02 31.8 23.44 32.38 23.54 33.02C23.67 33.84 23.35 34.33 23.07 34.58C22.58 35.02 21.8 35.18 20.87 35.18C19.36 35.18 17.49 34.75 15.99 34.34C15.88 34.31 15.79 34.29 15.72 34.27C15.52 34.22 15.41 34.02 15.46 33.82C15.51 33.63 15.71 33.51 15.9 33.56C15.98 33.58 16.07 33.61 16.18 33.63C19.68 34.57 21.83 34.71 22.58 34.04C22.8 33.84 22.88 33.54 22.81 33.14C22.75 32.7 22.43 32.29 21.88 31.9C19.6 30.31 13.81 29.76 11.83 30.16C10.49 30.42 8.34 31.41 5.44 33.08C6.48 34.29 8.32 37.42 9.05 38.95C9.05 38.94 9.06 38.94 9.07 38.94C12.75 37.5 14.59 38.1 16.54 38.72C17.78 39.12 19.07 39.53 20.94 39.39C22.21 39.3 25.15 38.01 27.92 36.33C31.26 34.31 32.71 32.75 32.66 32.11C32.64 31.83 32.53 31.62 32.34 31.46C31.97 31.16 31.24 31.06 30.39 31.18C28.42 31.45 27.55 32.02 25.9 33.36C25.74 33.49 25.51 33.46 25.38 33.31C25.26 33.15 25.28 32.92 25.44 32.79C27.02 31.51 28.03 30.77 30.29 30.45C30.92 30.36 32.08 30.3 32.8 30.89C33.16 31.18 33.35 31.57 33.39 32.06C33.5 33.57 30.25 35.78 28.3 36.96ZM6.52 39.44C6.48 39.01 6.09 38.7 5.66 38.75C5.23 38.8 4.92 39.19 4.97 39.62C5.02 40.05 5.4 40.36 5.83 40.31C6.26 40.26 6.57 39.87 6.52 39.44Z" />
					<path id="Path 82" class="shp0" d="M14.72 12.59C15.08 12.59 15.4 12.44 15.64 12.21C15.88 12.44 16.2 12.59 16.56 12.59C16.91 12.59 17.24 12.44 17.47 12.21C17.71 12.44 18.03 12.59 18.39 12.59C18.75 12.59 19.07 12.44 19.31 12.21C19.54 12.44 19.87 12.59 20.22 12.59C20.58 12.59 20.91 12.44 21.14 12.21C21.38 12.44 21.7 12.59 22.06 12.59C22.26 12.59 22.43 12.43 22.43 12.22C22.43 12.02 22.26 11.86 22.06 11.86C21.78 11.86 21.54 11.65 21.5 11.37C21.48 11.19 21.32 11.05 21.14 11.05C21.14 11.05 21.14 11.05 21.14 11.05C20.96 11.05 20.8 11.19 20.78 11.37C20.74 11.65 20.5 11.86 20.22 11.86C19.95 11.86 19.71 11.65 19.67 11.37C19.65 11.19 19.49 11.05 19.31 11.05L19.31 11.05C19.12 11.05 18.97 11.19 18.94 11.37C18.91 11.65 18.67 11.86 18.39 11.86C18.11 11.86 17.87 11.65 17.84 11.37C17.82 11.19 17.66 11.05 17.48 11.05C17.48 11.05 17.48 11.05 17.47 11.05C17.29 11.05 17.14 11.19 17.11 11.37C17.07 11.65 16.83 11.86 16.56 11.86C16.28 11.86 16.04 11.65 16 11.37C15.98 11.19 15.82 11.05 15.64 11.05L15.64 11.05C15.46 11.05 15.3 11.19 15.28 11.37C15.24 11.65 15 11.86 14.72 11.86C14.52 11.86 14.36 12.02 14.36 12.22C14.36 12.43 14.52 12.59 14.72 12.59Z" />
					<path id="Path 83" class="shp0" d="M14.72 14.26C15.08 14.26 15.4 14.12 15.64 13.88C15.88 14.12 16.2 14.26 16.56 14.26C16.91 14.26 17.24 14.12 17.47 13.88C17.71 14.12 18.03 14.26 18.39 14.26C18.75 14.26 19.07 14.12 19.31 13.88C19.54 14.12 19.87 14.26 20.22 14.26C20.58 14.26 20.91 14.12 21.14 13.88C21.38 14.12 21.7 14.26 22.06 14.26C22.26 14.26 22.43 14.1 22.43 13.9C22.43 13.69 22.26 13.53 22.06 13.53C21.78 13.53 21.54 13.32 21.5 13.05C21.48 12.86 21.32 12.73 21.14 12.73C21.14 12.73 21.14 12.73 21.14 12.73C20.96 12.73 20.8 12.87 20.78 13.05C20.74 13.32 20.5 13.53 20.22 13.53C19.95 13.53 19.71 13.32 19.67 13.05C19.65 12.86 19.49 12.73 19.31 12.73L19.31 12.73C19.12 12.73 18.97 12.86 18.94 13.05C18.91 13.32 18.67 13.53 18.39 13.53C18.11 13.53 17.87 13.32 17.84 13.05C17.82 12.87 17.66 12.73 17.48 12.73C17.48 12.73 17.48 12.73 17.47 12.73C17.29 12.73 17.14 12.86 17.11 13.04C17.07 13.32 16.83 13.53 16.56 13.53C16.28 13.53 16.04 13.32 16 13.05C15.98 12.86 15.82 12.73 15.64 12.73L15.64 12.73C15.46 12.73 15.3 12.86 15.28 13.05C15.24 13.32 15 13.53 14.72 13.53C14.52 13.53 14.36 13.69 14.36 13.9C14.36 14.1 14.52 14.26 14.72 14.26Z" />
					<path id="Path 84" class="shp0" d="M13.95 27.31C13.75 27.28 13.57 27.43 13.55 27.63C13.53 27.83 13.67 28.01 13.87 28.03C14.35 28.09 14.87 28.13 15.51 28.18C15.52 28.18 15.52 28.18 15.53 28.18C15.72 28.18 15.88 28.03 15.9 27.83C15.91 27.63 15.76 27.46 15.56 27.44C14.93 27.4 14.42 27.36 13.95 27.31Z" />
					<path id="Path 85" class="shp0" d="M18.25 27.52C17.91 27.52 17.56 27.52 17.22 27.52C17.22 27.52 17.22 27.52 17.22 27.52C17.02 27.52 16.86 27.68 16.85 27.88C16.85 28.08 17.02 28.25 17.22 28.25C17.55 28.25 17.9 28.26 18.25 28.26C19.01 28.26 20.45 28.21 22.04 28.06C22.24 28.04 22.39 27.86 22.37 27.66C22.35 27.46 22.18 27.31 21.97 27.33C20.3 27.48 18.85 27.52 18.25 27.52Z" />
					<path id="Path 86" class="shp0" d="M16.38 4.57C16.44 4.6 16.5 4.62 16.56 4.62C16.69 4.62 16.81 4.55 16.88 4.43L18.58 1.5C18.68 1.32 18.63 1.1 18.45 0.99C18.27 0.89 18.05 0.95 17.95 1.13L16.25 4.07C16.15 4.24 16.21 4.47 16.38 4.57Z" />
					<path id="Path 87" class="shp0" d="M21.84 7.44C21.9 7.48 21.97 7.5 22.03 7.5C22.15 7.5 22.27 7.44 22.34 7.32L24.02 4.59C24.12 4.41 24.07 4.19 23.9 4.08C23.72 3.98 23.5 4.03 23.39 4.2L21.72 6.94C21.61 7.11 21.67 7.34 21.84 7.44Z" />
					<path id="Path 88" class="shp0" d="M25.13 7.17C25.18 7.21 25.25 7.22 25.31 7.22C25.44 7.22 25.56 7.16 25.63 7.04L27.74 3.39C27.84 3.21 27.78 2.99 27.6 2.89C27.43 2.79 27.2 2.85 27.1 3.02L24.99 6.67C24.89 6.85 24.95 7.07 25.13 7.17Z" />
					<path id="Path 89" class="shp0" d="M11.85 7.32C11.91 7.35 11.97 7.37 12.04 7.37C12.16 7.37 12.29 7.3 12.35 7.18L15.04 2.54C15.1 2.42 15.1 2.29 15.04 2.18C15.16 2.17 15.28 2.11 15.35 2L15.66 1.46C15.76 1.28 15.7 1.06 15.53 0.96C15.35 0.85 15.13 0.91 15.03 1.09L14.71 1.63C14.64 1.74 14.65 1.88 14.71 1.99C14.59 1.99 14.47 2.06 14.4 2.17L11.72 6.82C11.62 6.99 11.68 7.22 11.85 7.32Z" />
					<path id="Path 90" class="shp0" d="M15.09 6.84C15.15 6.87 15.21 6.89 15.28 6.89C15.4 6.89 15.53 6.82 15.59 6.7L16.35 5.41C16.45 5.23 16.39 5.01 16.21 4.9C16.04 4.8 15.81 4.86 15.71 5.04L14.96 6.34C14.86 6.51 14.92 6.74 15.09 6.84Z" />
					<path id="Path 91" class="shp0" d="M24.08 8.99C24.14 9.02 24.2 9.04 24.26 9.04C24.39 9.04 24.51 8.97 24.58 8.85L25.24 7.72C25.34 7.54 25.28 7.32 25.1 7.22C24.93 7.12 24.7 7.18 24.6 7.35L23.95 8.49C23.85 8.66 23.91 8.89 24.08 8.99Z" />
				</g>
			</g>
		</g>
	</g>
</svg>