<svg xmlns="http://www.w3.org/2000/svg" viewBox="0 0 176 28" width="176" height="28">
	<defs>
		<clipPath clipPathUnits="userSpaceOnUse" id="cp1">
			<path d="M-47 -24L1393 -24L1393 1000L-47 1000Z" />
		</clipPath>
	</defs>
	<style>
		tspan { white-space:pre }
		.shp0 { fill: #1c1e29 } 
	</style>
	<g id="Page1 Overveiw" clip-path="url(#cp1)">
		<g id="primary-tm">
			<path id="path2" fill-rule="evenodd" class="shp0" d="M112.92 27L112.92 27C111.32 27 109.54 26.87 109.16 26.59C109.11 26.56 108.83 26.48 108.52 26.4C108.21 26.33 107.79 26.2 107.58 26.1C107.38 26.01 106.98 25.85 106.69 25.74C106.4 25.64 106.15 25.52 106.12 25.49C106.1 25.46 105.88 25.34 105.63 25.22C105.38 25.11 105.09 24.93 104.97 24.84C104.85 24.74 104.72 24.66 104.67 24.66C104.61 24.66 104.47 24.57 104.34 24.46C104.21 24.35 103.97 24.17 103.8 24.07C103.59 23.94 103.45 23.71 103.48 23.61C103.49 23.57 103.52 23.55 103.56 23.55C103.6 23.55 103.73 23.3 103.87 22.98C104 22.66 104.14 22.39 104.17 22.37C104.2 22.35 104.32 22.12 104.44 21.85C104.56 21.58 104.67 21.35 104.7 21.33C104.72 21.31 104.92 20.94 105.13 20.5C105.35 20.07 105.56 19.7 105.6 19.7C105.67 19.7 106.32 20.17 106.57 20.4C106.63 20.45 106.84 20.59 107.06 20.7C107.26 20.82 107.45 20.94 107.47 20.97C107.49 21 107.73 21.13 108 21.26C108.27 21.39 108.63 21.57 108.82 21.66C109.01 21.76 109.2 21.84 109.26 21.84C109.31 21.85 109.53 21.93 109.73 22.03C110.1 22.22 111.06 22.48 111.7 22.56C111.89 22.59 112.07 22.64 112.09 22.67C112.11 22.72 112.57 22.74 113 22.74C113.46 22.74 113.92 22.71 113.92 22.67C113.92 22.64 114.03 22.58 114.18 22.56C114.61 22.48 115.09 22.23 115.23 22.02C115.31 21.9 115.41 21.77 115.46 21.72C115.55 21.63 115.61 21.41 115.61 21.14C115.61 20.85 115.54 20.48 115.38 20.32C115.34 20.28 115.21 20.14 115.11 20.02C115 19.89 114.69 19.69 114.4 19.55C114.11 19.42 113.86 19.29 113.84 19.26C113.8 19.21 112.87 18.94 112.44 18.85C112.3 18.82 112.19 18.78 112.19 18.75C112.19 18.72 111.91 18.64 111.57 18.56C110.94 18.43 110.31 18.25 110.06 18.15C109.97 18.11 109.61 17.99 109.27 17.89C108.92 17.78 108.56 17.65 108.48 17.59C108.4 17.54 108.15 17.42 107.92 17.33C107.69 17.23 107.39 17.06 107.25 16.95C107.1 16.83 106.95 16.74 106.91 16.74C106.84 16.74 106.13 16.09 105.77 15.69C105.68 15.6 105.55 15.4 105.48 15.26C105.41 15.11 105.33 14.98 105.3 14.96C104.93 14.69 104.69 12.26 104.91 11.15C105.04 10.55 105.22 10 105.29 10C105.33 10 105.4 9.89 105.44 9.75C105.49 9.61 105.61 9.41 105.71 9.3C105.81 9.19 105.89 9.08 105.89 9.04C105.89 8.87 107.33 7.63 107.52 7.63C107.56 7.63 107.66 7.57 107.74 7.49C107.92 7.33 108.48 7.07 108.81 7C108.94 6.97 109.04 6.93 109.04 6.89C109.04 6.75 111.13 6.37 111.91 6.37C112.15 6.37 112.34 6.34 112.34 6.3C112.34 6.25 112.61 6.22 112.98 6.22C113.35 6.22 113.62 6.25 113.62 6.3C113.62 6.34 113.84 6.37 114.12 6.37C114.95 6.38 117.34 6.75 117.44 6.89C117.46 6.92 117.58 6.96 117.7 6.99C118.13 7.09 118.98 7.37 119.02 7.42C119.06 7.48 119.26 7.56 120.08 7.86C120.2 7.91 120.29 7.96 120.29 7.99C120.29 8.02 120.49 8.14 120.74 8.26C121.06 8.42 121.28 8.69 121.25 8.82C121.24 8.86 121.2 8.89 121.13 8.89C121.1 8.89 120.96 9.15 120.82 9.48C120.68 9.81 120.55 10.07 120.52 10.07C120.49 10.07 120.37 10.32 120.26 10.63C120.14 10.93 120.03 11.18 120 11.18C119.97 11.18 119.83 11.45 119.7 11.78C119.56 12.1 119.42 12.37 119.38 12.37C119.34 12.37 119.32 12.41 119.31 12.46C119.31 12.63 119.25 12.71 119.13 12.71C119.08 12.71 119.02 12.7 118.95 12.67C118.82 12.62 118.72 12.55 118.72 12.52C118.72 12.49 118.61 12.42 118.47 12.37C118.33 12.31 118 12.16 117.73 12.03C117.47 11.9 117.03 11.72 116.76 11.63C116.49 11.54 116.26 11.44 116.24 11.41C116.2 11.34 114.9 10.98 114.46 10.92C114.29 10.89 114.14 10.84 114.14 10.81C114.14 10.69 113.43 10.64 112.77 10.64C112.13 10.64 111.45 10.69 111.37 10.8C111.35 10.84 111.19 10.94 111.02 11.02C110.55 11.26 110.36 11.81 110.55 12.45C110.62 12.73 111.27 13.41 111.46 13.41C111.52 13.41 111.63 13.47 111.72 13.55C111.81 13.63 112.24 13.8 112.69 13.94C113.14 14.07 113.52 14.2 113.54 14.22C113.56 14.25 113.97 14.37 114.44 14.48C114.91 14.59 115.32 14.71 115.34 14.74C115.36 14.76 115.6 14.85 115.87 14.92C116.56 15.11 117.02 15.27 117.07 15.33C117.09 15.36 117.27 15.44 117.48 15.51C117.93 15.65 119.09 16.31 119.18 16.48C119.22 16.54 119.29 16.59 119.34 16.59C119.46 16.59 120.19 17.35 120.33 17.64C120.39 17.76 120.47 17.85 120.5 17.85C120.58 17.85 120.86 18.52 120.98 19C121.03 19.21 121.11 19.39 121.15 19.42C121.21 19.46 121.24 20.31 121.23 21.08C121.22 21.6 121.2 22.17 121.15 22.2C121.1 22.23 121.01 22.49 120.93 22.78C120.78 23.36 120.62 23.7 120.51 23.7C120.47 23.7 120.44 23.74 120.44 23.79C120.44 24.17 119.14 25.42 118.33 25.82C118.11 25.93 117.89 26.06 117.84 26.11C117.79 26.16 117.5 26.27 117.21 26.36C116.9 26.46 116.62 26.56 116.57 26.6C116.22 26.88 114.48 27 112.92 27ZM96.75 26.89L96.75 26.89L94.34 26.87C92.09 26.85 91.92 26.84 91.84 26.71C91.8 26.64 91.67 26.48 91.56 26.36C91.45 26.24 91.34 26.07 91.31 25.99C91.28 25.91 91.23 25.85 91.19 25.85C91.16 25.85 91.02 25.68 90.9 25.49C90.77 25.29 90.62 25.1 90.56 25.08C90.5 25.06 90.45 25 90.45 24.96C90.45 24.92 90.28 24.66 90.07 24.4C89.87 24.13 89.66 23.84 89.61 23.75C89.56 23.66 89.46 23.55 89.39 23.49C89.31 23.44 89.25 23.35 89.25 23.3C89.25 23.25 89.13 23.09 88.99 22.95C88.84 22.81 88.73 22.67 88.73 22.64C88.72 22.6 88.55 22.36 88.35 22.11C88.14 21.85 87.97 21.61 87.97 21.56C87.97 21.51 87.92 21.46 87.86 21.43C87.8 21.41 87.68 21.27 87.59 21.12C87.5 20.97 87.36 20.78 87.29 20.7C87.21 20.62 86.94 20.26 86.66 19.89C86.39 19.52 86.11 19.15 86.04 19.07C85.96 18.99 85.84 18.82 85.76 18.7C85.69 18.58 85.56 18.44 85.49 18.38C85.41 18.33 85.35 18.25 85.35 18.21C85.35 18.14 84.71 17.27 84.42 16.95C84.36 16.88 84.22 16.68 84.1 16.5C83.99 16.33 83.84 16.14 83.76 16.09C83.69 16.03 83.63 15.95 83.63 15.9C83.63 15.85 83.52 15.69 83.38 15.54C83.25 15.39 83.06 15.14 82.95 14.97C82.85 14.81 82.74 14.67 82.71 14.67C82.7 14.67 82.68 14.91 82.67 16.46C82.66 17.61 82.65 19.15 82.65 20.78L82.65 26.89L77.7 26.89L77.7 6.52L80.04 6.52C82.5 6.52 82.65 6.54 82.65 6.86C82.65 6.92 82.69 6.96 82.73 6.96C82.77 6.96 82.91 7.13 83.04 7.33C83.17 7.54 83.3 7.7 83.34 7.7C83.37 7.7 83.47 7.84 83.55 7.99C83.63 8.16 83.74 8.31 83.79 8.35C83.91 8.42 84.38 9.09 84.38 9.19C84.38 9.23 84.41 9.26 84.45 9.26C84.49 9.26 84.62 9.4 84.73 9.57C84.85 9.75 85 9.93 85.07 9.98C85.14 10.04 85.2 10.12 85.2 10.17C85.2 10.22 85.3 10.38 85.42 10.52C85.84 11 86.48 11.84 86.48 11.9C86.48 11.93 86.58 12.06 86.7 12.17C86.82 12.28 86.96 12.45 87.02 12.55C87.07 12.64 87.25 12.91 87.43 13.13C87.61 13.36 87.75 13.58 87.75 13.63C87.75 13.67 87.78 13.7 87.82 13.7C87.86 13.7 87.99 13.84 88.1 14.02C88.22 14.19 88.35 14.36 88.4 14.39C88.45 14.42 88.58 14.6 88.68 14.78C88.79 14.96 88.91 15.11 88.95 15.11C89 15.11 89.05 15.17 89.08 15.24C89.12 15.36 89.71 16.15 90.12 16.64C90.23 16.77 90.36 16.97 90.42 17.08C90.48 17.19 90.6 17.33 90.68 17.39C90.76 17.44 90.82 17.53 90.82 17.58C90.82 17.63 90.94 17.79 91.07 17.94C91.2 18.09 91.38 18.32 91.48 18.46L91.65 18.7L91.65 6.52L96.75 6.52L96.75 26.89ZM50.09 26.89C49.06 26.89 48.64 26.87 48.55 26.73C48.5 26.64 48.57 26.5 48.68 26.28C48.71 26.22 48.75 26.16 48.78 26.09C48.92 25.82 49.11 25.38 49.21 25.11C49.31 24.84 49.41 24.61 49.45 24.59C49.48 24.57 49.61 24.27 49.74 23.92C49.86 23.58 49.99 23.28 50.03 23.26C50.06 23.24 50.16 23 50.25 22.74C50.35 22.47 50.49 22.16 50.56 22.03C50.7 21.82 50.87 21.38 51.02 20.91C51.06 20.77 51.12 20.66 51.16 20.66C51.2 20.66 51.26 20.56 51.3 20.42C51.44 19.96 51.62 19.52 51.68 19.48C51.72 19.46 51.83 19.2 51.94 18.89C52.05 18.59 52.18 18.27 52.23 18.19C52.29 18.11 52.43 17.79 52.55 17.48C52.67 17.17 52.79 16.91 52.82 16.89C52.85 16.86 52.98 16.57 53.11 16.22C53.24 15.88 53.37 15.58 53.4 15.56C53.43 15.53 53.48 15.45 53.5 15.37C53.62 14.98 53.87 14.4 53.94 14.38C53.98 14.37 54.01 14.31 54.01 14.25C54.01 14.2 54.06 14.04 54.11 13.91C54.18 13.77 54.28 13.51 54.36 13.33C54.43 13.15 54.51 12.98 54.54 12.96C54.56 12.94 54.68 12.68 54.8 12.37C54.91 12.06 55.03 11.8 55.06 11.78C55.08 11.76 55.21 11.45 55.36 11.07C55.49 10.7 55.63 10.39 55.66 10.37C55.69 10.35 55.81 10.08 55.92 9.78C56.04 9.46 56.15 9.2 56.18 9.18C56.24 9.13 56.48 8.6 56.48 8.51C56.48 8.47 56.59 8.23 56.71 7.98C56.84 7.72 57.02 7.32 57.1 7.07C57.19 6.83 57.29 6.6 57.34 6.57C57.38 6.54 58.66 6.52 60.13 6.52L62.84 6.52L63.03 6.91C63.34 7.55 63.46 7.85 63.46 7.96C63.46 8.02 63.49 8.07 63.52 8.07C63.56 8.07 63.7 8.38 63.83 8.74C63.96 9.1 64.1 9.41 64.12 9.42C64.15 9.43 64.27 9.71 64.39 10.04C64.5 10.36 64.62 10.65 64.65 10.66C64.68 10.69 64.82 11 64.96 11.37C65.1 11.74 65.23 12.05 65.26 12.07C65.29 12.09 65.4 12.36 65.51 12.66C65.62 12.95 65.74 13.25 65.78 13.3C65.82 13.34 65.95 13.65 66.08 13.98C66.2 14.32 66.35 14.66 66.41 14.76C66.47 14.85 66.59 15.14 66.68 15.41C66.78 15.67 66.9 15.96 66.95 16.04C67.01 16.12 67.14 16.44 67.25 16.74C67.36 17.05 67.47 17.31 67.49 17.33C67.52 17.35 67.62 17.56 67.72 17.81C67.81 18.05 67.96 18.4 68.05 18.58C68.21 18.92 68.46 19.56 68.54 19.81C68.56 19.89 68.6 19.98 68.64 20C68.69 20.04 68.87 20.49 69.01 20.94C69.06 21.08 69.11 21.18 69.15 21.18C69.18 21.18 69.29 21.41 69.38 21.68C69.47 21.95 69.64 22.36 69.75 22.59C69.86 22.81 70.02 23.18 70.1 23.4C70.18 23.63 70.26 23.83 70.29 23.85C70.32 23.87 70.45 24.17 70.58 24.52C70.71 24.87 70.84 25.16 70.87 25.18C70.9 25.2 71.04 25.54 71.18 25.92C71.32 26.31 71.46 26.64 71.49 26.65C71.53 26.67 71.55 26.72 71.55 26.78C71.55 26.87 71.1 26.88 68.83 26.88L68.65 26.88L65.74 26.88L65.53 26.24C65.41 25.89 65.27 25.52 65.22 25.44C65.16 25.36 65.03 25 64.91 24.66C64.8 24.31 64.68 24.02 64.65 24C64.63 23.98 64.54 23.78 64.47 23.57L64.33 23.18L55.52 23.18L55.36 23.59C55.28 23.81 55.21 24.03 55.21 24.07C55.21 24.1 55.17 24.18 55.11 24.23C55.06 24.29 54.96 24.53 54.88 24.78C54.8 25.02 54.66 25.39 54.57 25.59C54.47 25.79 54.32 26.16 54.23 26.42L54.06 26.89L51.3 26.89C51.04 26.89 50.81 26.89 50.59 26.89C50.41 26.89 50.24 26.89 50.09 26.89ZM59.95 12.04L59.87 12.24C59.82 12.35 59.77 12.52 59.74 12.63C59.71 12.73 59.66 12.81 59.63 12.81C59.6 12.81 59.5 13.05 59.41 13.35C59.32 13.64 59.18 14.01 59.1 14.18C59.02 14.35 58.85 14.76 58.73 15.11C58.61 15.44 58.48 15.75 58.45 15.77C58.42 15.79 58.33 16.01 58.25 16.26C58.18 16.51 58.05 16.84 57.97 17C57.89 17.16 57.73 17.57 57.6 17.92C57.48 18.26 57.35 18.56 57.32 18.59C57.28 18.61 57.23 18.73 57.2 18.87L57.15 19.11L59.93 19.11C61.28 19.11 62.69 19.1 62.71 19.07C62.71 18.99 62.46 18.33 62.41 18.29C62.39 18.27 62.26 17.95 62.14 17.59C62.02 17.22 61.9 16.91 61.87 16.9C61.84 16.89 61.71 16.55 61.58 16.17C61.45 15.78 61.3 15.39 61.25 15.3C61.19 15.22 61.07 14.91 60.98 14.63C60.89 14.34 60.78 14.07 60.75 14.03C60.71 13.98 60.58 13.65 60.46 13.29C60.34 12.94 60.21 12.61 60.17 12.56C60.13 12.52 60.07 12.38 60.03 12.26L59.95 12.04ZM30.47 26.89L30.47 26.89L27.77 26.89L25.07 26.89L25.07 6.51L30.64 6.54C36.28 6.56 37.2 6.61 37.72 6.88C37.79 6.92 38.14 7.04 38.51 7.14C38.86 7.25 39.16 7.37 39.16 7.41C39.16 7.45 39.2 7.48 39.24 7.48C39.36 7.48 40.17 7.89 40.36 8.05C40.89 8.48 41.82 9.45 41.91 9.67C41.97 9.81 42.04 9.93 42.07 9.93C42.14 9.93 42.41 10.55 42.55 11.04C42.6 11.22 42.67 11.39 42.7 11.41C42.87 11.53 42.94 12.6 42.94 13.61C42.93 14.62 42.85 15.77 42.68 16.07C42.64 16.13 42.53 16.46 42.42 16.77C42.32 17.1 42.19 17.41 42.13 17.48C42.08 17.54 41.95 17.74 41.85 17.92C41.46 18.65 40.72 19.35 39.72 19.96C39.58 20.05 39.45 20.14 39.42 20.16C39.42 20.17 39.42 20.17 39.42 20.18C39.41 20.32 39.77 20.96 39.93 21.12C40 21.2 40.13 21.41 40.22 21.59C40.31 21.77 40.41 21.92 40.44 21.92C40.47 21.92 40.59 22.1 40.7 22.31C40.81 22.51 40.95 22.74 41.01 22.8C41.07 22.85 41.2 23.06 41.3 23.26C41.41 23.47 41.52 23.63 41.55 23.63C41.58 23.63 41.64 23.7 41.68 23.79C41.86 24.16 42.06 24.48 42.14 24.55C42.19 24.59 42.32 24.79 42.43 25C42.54 25.2 42.66 25.38 42.69 25.4C42.72 25.43 42.84 25.61 42.95 25.81C43.07 26.02 43.22 26.23 43.27 26.29C43.38 26.39 43.51 26.69 43.51 26.82C43.51 26.86 42.32 26.89 40.48 26.89L37.45 26.89L37.26 26.53C37.16 26.33 36.94 25.92 36.8 25.63C36.64 25.32 36.49 25.05 36.46 25.03C36.44 25.01 36.3 24.78 36.17 24.52C35.74 23.66 35.43 23.07 35.35 22.99C35.31 22.95 35.17 22.66 35.04 22.36C34.9 22.06 34.75 21.78 34.7 21.74C34.65 21.7 34.57 21.56 34.52 21.42L34.42 21.18L30.47 21.18L30.47 26.89ZM30.47 10.74L30.47 16.96L32.68 16.96C35.48 16.96 36.05 16.87 36.71 16.31C37.15 15.94 37.36 15.7 37.45 15.44C37.5 15.3 37.57 15.18 37.6 15.18C37.64 15.18 37.67 15.14 37.7 15.05C37.87 14.5 37.83 12.61 37.59 12.44C37.56 12.42 37.48 12.29 37.4 12.15C37.11 11.57 36.35 11.04 35.65 10.93C35.48 10.9 35.32 10.84 35.3 10.81C35.27 10.77 34.23 10.74 32.86 10.74L30.47 10.74ZM144.88 26.89L128.31 26.89L128.31 6.52L144.51 6.52L144.51 10.74L133.71 10.74L133.71 14.59L143.46 14.59L143.46 18.81L133.71 18.81L133.71 22.74L144.88 22.74L144.88 26.89ZM12.47 26.89L7.07 26.89L7.07 10.89L1 10.89L1 6.52L18.7 6.52L18.66 10.85L15.56 10.87L12.47 10.89L12.47 26.89ZM158.83 26.85C157.7 26.85 156.36 26.71 156.36 26.59C156.36 26.56 156.22 26.51 156.05 26.49C155.72 26.43 154.84 26.15 154.78 26.08C154.76 26.05 154.5 25.93 154.22 25.82C153.93 25.7 153.66 25.57 153.62 25.51C153.58 25.47 153.4 25.36 153.24 25.27C152.94 25.12 152.69 24.94 151.97 24.34C151.25 23.74 150.24 22.55 150.02 22.03C149.96 21.89 149.88 21.78 149.84 21.78C149.8 21.78 149.74 21.7 149.71 21.61C149.69 21.52 149.53 21.17 149.37 20.85C149.21 20.51 149.02 19.95 148.93 19.59C148.85 19.22 148.75 18.86 148.7 18.79C148.49 18.42 148.45 15.22 148.66 14.68C148.68 14.63 148.69 14.61 148.71 14.6C148.75 14.59 148.78 14.51 148.78 14.44C148.78 14.13 149.1 13.12 149.39 12.53C149.55 12.19 149.68 11.89 149.68 11.85C149.68 11.82 149.73 11.74 149.79 11.69C149.84 11.63 149.94 11.49 150 11.37C150.32 10.76 151.86 8.96 152.06 8.96C152.1 8.96 152.24 8.85 152.38 8.71C152.53 8.58 152.81 8.37 153.02 8.26C153.23 8.14 153.42 8.01 153.45 7.96C153.47 7.92 153.73 7.78 154.03 7.67C154.32 7.55 154.56 7.43 154.56 7.4C154.56 7.37 154.86 7.25 155.21 7.14C155.58 7.03 155.9 6.91 155.94 6.88C156.01 6.83 157.07 6.63 157.63 6.56C157.8 6.54 158.03 6.53 158.32 6.53C159.59 6.53 161.61 6.73 161.67 6.89C161.68 6.93 161.73 6.96 161.78 6.96C161.93 6.96 163.06 7.33 163.1 7.4C163.12 7.43 163.36 7.56 163.63 7.67C163.9 7.78 164.17 7.94 164.25 8.01C164.32 8.09 164.42 8.15 164.47 8.15C164.8 8.16 166.8 10.04 167.16 10.66C167.22 10.77 167.33 10.93 167.4 11C167.47 11.07 167.6 11.26 167.69 11.43C167.77 11.6 167.87 11.76 167.9 11.78C167.97 11.83 168.33 12.66 168.39 12.91C168.42 13.02 168.47 13.11 168.5 13.11C168.57 13.11 168.76 13.79 168.88 14.44C168.93 14.71 169 15 169.05 15.1C169.18 15.36 169.17 18.18 169.05 18.31C168.99 18.36 168.95 18.46 168.95 18.54C168.95 18.79 168.57 20.29 168.5 20.29C168.47 20.29 168.42 20.38 168.39 20.49C168.28 20.94 167.52 22.36 167.33 22.46C167.28 22.5 167.23 22.56 167.23 22.61C167.23 22.75 165.85 24.29 165.72 24.29C165.69 24.29 165.54 24.41 165.38 24.56C164.93 24.98 164.89 25.01 164.49 25.22C164.28 25.34 164.1 25.45 164.08 25.48C163.95 25.67 162.18 26.38 161.58 26.48C161.43 26.51 161.3 26.56 161.3 26.59C161.3 26.71 159.96 26.85 158.83 26.85ZM158.85 11.71C158.21 11.71 157.63 11.79 157.38 11.91C157.29 11.95 157.01 12.07 156.76 12.17C155.82 12.54 154.67 13.58 154.45 14.28C154.42 14.37 154.37 14.44 154.33 14.44C154.25 14.44 153.88 15.56 153.88 15.82C153.88 15.92 153.85 16 153.81 16C153.76 16 153.73 16.27 153.73 16.66C153.73 17.03 153.76 17.34 153.81 17.37C153.85 17.39 153.88 17.47 153.88 17.53C153.88 17.75 154.2 18.82 154.29 18.91C154.33 18.96 154.45 19.13 154.55 19.29C154.76 19.66 155.47 20.5 155.57 20.52C155.61 20.52 155.79 20.64 155.98 20.78C156.38 21.08 156.84 21.3 157.32 21.42C157.51 21.47 157.69 21.54 157.72 21.58C157.76 21.64 158.28 21.67 158.77 21.67C159.26 21.67 159.81 21.64 159.89 21.58C159.94 21.54 160.16 21.46 160.37 21.4C160.85 21.28 161.38 21.05 161.38 20.97C161.38 20.93 161.5 20.85 161.64 20.78C161.87 20.67 162.47 20.13 162.88 19.66C162.95 19.58 163.09 19.36 163.18 19.16C163.28 18.97 163.38 18.81 163.41 18.81C163.49 18.81 163.56 18.71 163.62 18.5C163.9 17.56 163.81 14.85 163.41 14.59C163.37 14.57 163.28 14.42 163.2 14.24C162.92 13.67 161.88 12.59 161.62 12.59C161.58 12.59 161.53 12.55 161.51 12.49C161.49 12.44 161.22 12.3 160.92 12.18C160.61 12.06 160.35 11.95 160.33 11.92C160.31 11.9 160.09 11.84 159.85 11.79C159.58 11.74 159.23 11.71 158.85 11.71ZM174.21 3.32C174.04 3.32 173.87 3.11 173.75 2.72C173.65 2.43 173.55 2.17 173.52 2.15C173.49 2.13 173.4 1.89 173.32 1.63L173.16 1.15L173.16 2.2L173.15 3.26L172.48 3.26L172.48 0L172.96 0C173.35 0 173.45 0.02 173.45 0.11C173.45 0.17 173.48 0.22 173.51 0.22C173.54 0.22 173.67 0.52 173.79 0.87C173.91 1.23 174.06 1.63 174.13 1.76L174.26 2.01L174.43 1.45C174.53 1.14 174.63 0.89 174.66 0.89C174.69 0.89 174.78 0.69 174.85 0.44L174.98 0L176 0L176 3.26L175.33 3.26L175.33 2.22C175.33 1.57 175.3 1.19 175.25 1.19C175.21 1.19 175.18 1.23 175.18 1.28C175.18 1.44 174.81 2.53 174.63 2.91C174.5 3.18 174.36 3.32 174.21 3.32ZM171.2 3.26L170.45 3.26L170.45 0.59L169.48 0.59L169.48 0L172.18 0L172.18 0.59L171.2 0.59L171.2 3.26Z" />
		</g>
	</g>
</svg>