<svg xmlns="http://www.w3.org/2000/svg" viewBox="0 0 44 43" width="44" height="43">
	<defs>
		<clipPath clipPathUnits="userSpaceOnUse" id="cp1">
			<path d="M-1108 -707L332 -707L332 317L-1108 317Z" />
		</clipPath>
	</defs>
	<style>
		tspan { white-space:pre }
		.shp0 { fill: #1e2e74 } 
	</style>
	<g id="Page2 Key addmission" clip-path="url(#cp1)">
		<g id="Group 19">
			<g id="noun_Level_2049684">
				<path id="Path 50" class="shp0" d="M38.44 11.77C38.37 11.73 38.3 11.69 38.23 11.66C38.91 11.07 39.16 10.12 38.85 9.28C38.54 8.43 37.73 7.87 36.83 7.87C35.93 7.87 35.13 8.43 34.82 9.28C34.5 10.12 34.75 11.07 35.44 11.66C35.37 11.69 35.29 11.73 35.23 11.77L31.43 5.73L29.67 6.88L33.98 13.73C33.98 13.78 33.97 13.83 33.97 13.88L33.97 26.52L36.47 26.52L36.47 20.07L37.19 20.07L37.19 26.52L39.7 26.52L39.7 13.88C39.7 13.83 39.69 13.78 39.69 13.73L44 6.88L42.24 5.73L38.44 11.77Z" />
				<path id="Path 51" class="shp0" d="M37.72 1.89L36.83 0L35.95 1.89L33.97 2.19L35.4 3.66L35.06 5.73L36.83 4.75L38.6 5.73L38.27 3.66L39.7 2.19L37.72 1.89Z" />
				<path id="Rectangle 9" class="shp0" d="M42 2L44 2L44 4L42 4L42 2Z" />
				<path id="Rectangle 10" class="shp0" d="M30 2L32 2L32 4L30 4L30 2Z" />
				<path id="Rectangle 11" class="shp0" d="M2 0L4 0L4 1L2 1L2 0Z" />
				<path id="Rectangle 12" class="shp0" d="M2 3L4 3L4 4L2 4L2 3Z" />
				<path id="Rectangle 13" class="shp0" d="M4 1L5 1L5 3L4 3L4 1Z" />
				<path id="Rectangle 14" class="shp0" d="M1 1L2 1L2 3L1 3L1 1Z" />
				<path id="Rectangle 15" class="shp0" d="M13 6L15 6L15 8L13 8L13 6Z" />
				<path id="Rectangle 16" class="shp0" d="M13 9L15 9L15 11L13 11L13 9Z" />
				<path id="Rectangle 17" class="shp0" d="M15 8L16 8L16 9L15 9L15 8Z" />
				<path id="Rectangle 18" class="shp0" d="M12 8L13 8L13 9L12 9L12 8Z" />
				<path id="Path 52" class="shp0" d="M25.37 33.68L25.37 18.63C25.77 19.04 26.01 19.59 26.02 20.17L26.08 25.08L27.52 25.08L27.52 19.91C27.52 18.02 25.98 16.48 24.09 16.48C24.84 15.63 24.84 14.34 24.08 13.49L24.03 13.44C23.38 12.86 22.46 12.72 21.67 13.06C20.88 13.41 20.36 14.19 20.35 15.05C20.35 15.58 20.55 16.09 20.91 16.48C19.02 16.48 17.48 18.02 17.48 19.91L17.48 25.08L18.92 25.08L18.98 20.17C18.99 19.59 19.22 19.04 19.63 18.63L19.63 33.68L22.14 33.68L22.14 25.8L22.86 25.8L22.86 33.68L25.37 33.68Z" />
				<path id="Path 53" class="shp0" d="M11.03 40.85L11.03 25.8C11.44 26.21 11.67 26.76 11.68 27.34L11.75 32.25L13.18 32.25L13.18 27.07C13.18 25.18 11.65 23.65 9.76 23.65C10.51 22.79 10.51 21.51 9.75 20.66L9.69 20.61C9.05 20.03 8.13 19.88 7.34 20.23C6.55 20.58 6.03 21.35 6.02 22.22C6.02 22.75 6.22 23.26 6.57 23.65C4.68 23.65 3.15 25.18 3.15 27.07L3.15 32.25L4.58 32.25L4.65 27.34C4.66 26.76 4.89 26.21 5.3 25.8L5.3 40.85L7.81 40.85L7.81 32.97L8.52 32.97L8.52 40.85L11.03 40.85Z" />
				<path id="Path 54" fill-rule="evenodd" class="shp0" d="M44 27.23L44 43L1 43L1 41.57L14.62 41.57L14.62 35.12C14.62 34.72 14.94 34.4 15.33 34.4L28.95 34.4L28.95 27.95C28.95 27.55 29.27 27.23 29.67 27.23L44 27.23ZM19.51 37.27L17.95 37.27L17.95 38.7L19.51 38.7L19.51 37.27ZM22.62 37.27L21.07 37.27L21.07 38.7L22.62 38.7L22.62 37.27ZM25.74 37.27L24.18 37.27L24.18 38.7L25.74 38.7L25.74 37.27ZM28.85 37.27L27.3 37.27L27.3 38.7L28.85 38.7L28.85 37.27ZM33.97 30.1L32.53 30.1L32.53 31.53L33.97 31.53L33.97 30.1ZM36.83 30.1L35.4 30.1L35.4 31.53L36.83 31.53L36.83 30.1ZM39.7 30.1L38.27 30.1L38.27 31.53L39.7 31.53L39.7 30.1ZM42.57 30.1L41.13 30.1L41.13 31.53L42.57 31.53L42.57 30.1Z" />
			</g>
		</g>
	</g>
</svg>