<svg xmlns="http://www.w3.org/2000/svg" viewBox="0 0 28 27" width="28" height="27">
	<defs>
		<clipPath clipPathUnits="userSpaceOnUse" id="cp1">
			<path d="M-635 -403L805 -403L805 621L-635 621Z" />
		</clipPath>
	</defs>
	<style>
		tspan { white-space:pre }
		.shp0 { fill: #1e2e74 } 
	</style>
	<g id="Page 3 Test Req" clip-path="url(#cp1)">
		<g id="Group 28">
			<g id="noun_Admission Forms_282461">
				<g id="Group 23">
					<path id="Path 56" class="shp0" d="M19.75 16.3L18.96 17.45L18.03 16.81L18.03 16.8L18.03 16.8L18.46 15.72L18.56 15.48L19.75 16.3Z" />
					<path id="Path 57" class="shp0" d="M18.33 18.35L17.53 19.5L17.07 19.18L17.07 19.17L17.61 17.84L17.61 17.84L18.33 18.35Z" />
					<path id="Path 58" class="shp0" d="M27.09 8.19L22.71 5.14C22.69 5.23 22.66 5.32 22.62 5.41L22.23 6.39L26.35 9.25L15.45 24.95L14.34 24.18C14.17 24.23 14 24.25 13.82 24.25C13.59 24.25 13.37 24.21 13.16 24.12L10.38 23L14.71 26.01C15.3 26.42 16.1 26.27 16.51 25.69L27.42 9.99C27.82 9.4 27.67 8.6 27.09 8.19Z" />
					<path id="Path 59" class="shp0" d="M24.44 9.36L24.09 9.87L21.54 8.1L21.78 7.51L24.44 9.36Z" />
					<path id="Path 60" class="shp0" d="M23.54 10.66L23.19 11.17L20.93 9.6L21.17 9.02L23.54 10.66Z" />
					<path id="Path 61" class="shp0" d="M22.63 11.96L22.29 12.47L20.33 11.11L20.56 10.53L22.63 11.96Z" />
					<path id="Path 62" class="shp0" d="M21.73 13.27L21.38 13.77L19.72 12.61L19.95 12.03L21.73 13.27Z" />
				</g>
				<path id="Path 63" class="shp0" d="M17.16 3.21L17.16 3.2L17.16 3.21Z" />
				<g id="Group 24">
					<path id="Path 64" class="shp0" d="M21.46 3.55L17.16 1.81L17.16 3.2L17.16 3.21L20.9 4.72L20.98 4.75L17.16 14.21L17.16 17.66L22.18 5.23C22.44 4.57 22.12 3.82 21.46 3.55Z" />
				</g>
				<g id="Group 25">
					<path id="Path 65" class="shp0" d="M13.82 22.48L12.81 22.07L12.69 22.18L9.65 22.18L13.34 23.67C14 23.94 14.75 23.62 15.02 22.96L17.13 17.74L14.79 20.08L13.82 22.48Z" />
					<path id="Path 66" fill-rule="evenodd" class="shp0" d="M18.03 16.81L18.03 16.8L18.47 15.72L18.46 15.72L18.03 16.8L18.03 16.81ZM17.61 17.84L17.61 17.84L17.61 17.84Z" />
				</g>
				<path id="Path 67" class="shp0" d="M19.14 5.29L18.91 5.85L17.16 5.15L17.16 4.49L19.14 5.29Z" />
				<path id="Path 68" class="shp0" d="M18.55 6.75L18.32 7.32L17.16 6.85L17.16 6.19L18.55 6.75Z" />
				<path id="Path 69" class="shp0" d="M17.96 8.22L17.73 8.79L17.16 8.56L17.16 7.9L17.96 8.22Z" />
				<path id="Path 70" class="shp0" d="M17.36 9.69L17.16 10.19L17.16 9.61L17.36 9.69Z" />
				<path id="Rectangle 28" class="shp0" d="M2.79 15.83L10.15 15.83L10.15 17.23L2.79 17.23L2.79 15.83Z" />
				<path id="Rectangle 29" class="shp0" d="M2.79 10.85L13.99 10.85L13.99 12.25L2.79 12.25L2.79 10.85Z" />
				<path id="Rectangle 30" class="shp0" d="M2.79 13.34L13.99 13.34L13.99 14.74L2.79 14.74L2.79 13.34Z" />
				<g id="Group 26">
					<path id="Path 71" fill-rule="evenodd" class="shp0" d="M7.3 4.7C7.27 4.93 7.15 5.11 7.03 5.09C7 5.09 6.98 5.08 6.96 5.06C6.78 5.58 6.4 5.97 5.95 6.12C5.82 6.17 5.68 6.19 5.54 6.19C4.9 6.19 4.36 5.72 4.12 5.06C4.1 5.08 4.08 5.09 4.06 5.09C3.93 5.11 3.81 4.93 3.78 4.7C3.74 4.46 3.82 4.26 3.94 4.24C3.96 4.24 3.98 4.24 4 4.25C4.01 4.03 4.05 3.81 4.12 3.61C4.35 2.95 4.9 2.48 5.54 2.48C5.68 2.48 5.82 2.5 5.95 2.54C6.41 2.69 6.78 3.09 6.96 3.61C7.03 3.81 7.07 4.03 7.08 4.25C7.1 4.24 7.12 4.24 7.14 4.24C7.26 4.26 7.34 4.46 7.3 4.7ZM6.79 4.46C6.69 4.47 6.31 4.46 5.95 4.16C5.87 4.1 5.8 4.03 5.73 3.94C5.59 3.77 5.41 3.66 5.22 3.61C5.07 3.57 4.92 3.58 4.78 3.61C4.6 3.66 4.45 3.76 4.33 3.9C4.3 4.04 4.29 4.18 4.29 4.33C4.29 5.2 4.85 5.9 5.54 5.9C5.68 5.9 5.82 5.87 5.95 5.82C6.41 5.62 6.75 5.09 6.79 4.46Z" />
					<path id="Path 72" class="shp0" d="M8.07 7.12C7.74 6.58 7.15 6.21 6.47 6.21L6.43 6.21C6.31 6.21 6.19 6.36 6.06 6.4C6.06 6.4 6.01 6.6 5.95 6.88C5.93 6.96 5.91 7.04 5.89 7.14C5.77 7.66 5.61 8.33 5.57 8.52C5.57 8.33 5.38 7.67 5.26 7.14C5.24 7.05 5.22 6.96 5.2 6.88C5.14 6.61 5.1 6.4 5.1 6.4C4.97 6.36 4.85 6.21 4.73 6.21L4.69 6.21C4.01 6.21 3.38 6.58 3.04 7.12C2.86 7.41 2.72 7.78 2.72 8.15L2.72 9.02C2.72 9.27 2.92 9.47 3.17 9.47L7.82 9.47L7.9 9.47C8.15 9.47 8.35 9.27 8.35 9.02L8.35 8.15C8.35 7.78 8.26 7.41 8.07 7.12Z" />
				</g>
				<path id="Path 73" fill-rule="evenodd" class="shp0" d="M16.68 17.51L15.39 18.8L13.78 20.41L12.49 21.7L12.49 21.7L12.49 21.7L1.29 21.7C0.58 21.7 0 21.12 0 20.41L0 1.29C0 0.58 0.58 0 1.29 0L15.39 0C16.1 0 16.68 0.58 16.68 1.29L16.68 17.51ZM15.39 17.51L15.39 1.29L1.29 1.29L1.29 20.41L12.49 20.41L12.49 18.8C12.49 18.09 13.07 17.51 13.78 17.51L15.39 17.51Z" />
				<path id="Path 74" class="shp0" d="M17.13 17.74L17.16 17.71L17.16 17.66L17.13 17.74Z" />
				<path id="Rectangle 31" class="shp0" d="M8.88 2.48L13.88 2.48L13.88 3.09L8.88 3.09L8.88 2.48Z" />
				<path id="Rectangle 32" class="shp0" d="M8.88 4.06L13.88 4.06L13.88 4.67L8.88 4.67L8.88 4.06Z" />
				<path id="Rectangle 33" class="shp0" d="M8.88 5.64L13.88 5.64L13.88 6.26L8.88 6.26L8.88 5.64Z" />
				<path id="Rectangle 34" class="shp0" d="M10.87 7.23L13.88 7.23L13.88 7.84L10.87 7.84L10.87 7.23Z" />
			</g>
		</g>
	</g>
</svg>