<svg xmlns="http://www.w3.org/2000/svg" viewBox="0 0 51 50" width="51" height="50">
	<defs>
		<clipPath clipPathUnits="userSpaceOnUse" id="cp1">
			<path d="M-727 -392L713 -392L713 632L-727 632Z" />
		</clipPath>
	</defs>
	<style>
		tspan { white-space:pre }
		.shp0 { fill: none } 
		.shp1 { fill: #68dbb3 } 
	</style>
	<g id="Page 3 Test Req" clip-path="url(#cp1)">
		<g id="noun_Check_2056958">
			<path id="Rectangle 35" class="shp0" d="M1 0L51 0L51 50L1 50L1 0Z" />
			<g id="Group 27">
				<path id="Path 75" class="shp1" d="M38.34 19.39C38.69 19.94 38.99 20.54 39.24 21.15C39.99 22.95 40.39 24.8 40.39 26.75C40.39 28.7 39.99 30.61 39.24 32.36C38.49 34.06 37.49 35.61 36.14 36.96C34.84 38.27 33.28 39.32 31.53 40.07C29.73 40.82 27.88 41.22 25.92 41.22C23.97 41.22 22.07 40.82 20.32 40.07C18.62 39.32 17.06 38.32 15.71 36.96C14.41 35.66 13.36 34.11 12.61 32.36C11.86 30.56 11.46 28.7 11.46 26.75C11.46 24.8 11.86 22.9 12.61 21.15C13.36 19.44 14.36 17.89 15.71 16.54C17.01 15.24 18.57 14.19 20.32 13.44C22.12 12.68 23.97 12.28 25.92 12.28C27.88 12.28 29.78 12.68 31.53 13.44C32.08 13.69 32.63 13.94 33.18 14.24L34.64 12.58C32.03 10.98 29.08 10.13 25.92 10.13C21.47 10.13 17.31 11.83 14.21 14.99C11.11 18.14 9.3 22.35 9.3 26.8C9.3 31.26 11.01 35.41 14.16 38.52C17.31 41.67 21.47 43.37 25.87 43.37C30.33 43.37 34.48 41.67 37.59 38.52C40.69 35.36 42.44 31.21 42.44 26.8C42.44 23.4 41.39 20.09 39.49 17.34L38.34 19.39Z" />
			</g>
			<path id="Path 76" class="shp1" d="M42.34 6.63C42.09 6.63 41.84 6.73 41.64 6.98L25.57 25.4L18.87 20.79C18.72 20.69 18.52 20.64 18.31 20.64C17.66 20.64 17.11 21.35 17.46 22.05L24.72 35.56C24.92 35.91 25.22 36.06 25.57 36.06C25.87 36.06 26.17 35.91 26.37 35.61L43.1 8.08C43.6 7.33 43 6.63 42.34 6.63Z" />
		</g>
	</g>
</svg>