<svg xmlns="http://www.w3.org/2000/svg" viewBox="0 0 42 43" width="42" height="43">
	<defs>
		<clipPath clipPathUnits="userSpaceOnUse" id="cp1">
			<path d="M-686 -741L754 -741L754 283L-686 283Z" />
		</clipPath>
	</defs>
	<style>
		tspan { white-space:pre }
		.shp0 { fill: #1e2e74 } 
	</style>
	<g id="Page2 Key addmission" clip-path="url(#cp1)">
		<g id="Group 18">
			<g id="noun_main_2848207">
				<path id="Path 16" fill-rule="evenodd" class="shp0" d="M21 1C32.59 1.01 41.99 10.41 42 22C42 33.6 32.6 43 21 43C9.4 43 0 33.6 0 22C0 10.4 9.4 1 21 1ZM21 41.69C31.87 41.68 40.67 32.87 40.69 22C40.69 11.13 31.87 2.31 21 2.31C10.13 2.31 1.31 11.13 1.31 22C1.31 32.87 10.13 41.69 21 41.69Z" />
				<path id="Path 17" class="shp0" d="M10.13 8.66C10.27 8.66 10.42 8.61 10.53 8.52C10.85 8.28 11.18 8.04 11.52 7.81C11.82 7.61 11.9 7.2 11.7 6.9C11.5 6.6 11.09 6.52 10.79 6.72C10.43 6.96 10.07 7.22 9.72 7.49C9.5 7.66 9.42 7.96 9.51 8.22C9.6 8.49 9.85 8.66 10.13 8.66Z" />
				<path id="Path 18" class="shp0" d="M16.31 5.57C16.37 5.57 16.43 5.56 16.48 5.54C16.87 5.44 17.27 5.34 17.67 5.26C18.02 5.19 18.25 4.85 18.18 4.49C18.11 4.14 17.77 3.91 17.41 3.98C16.98 4.06 16.56 4.16 16.14 4.28C15.82 4.36 15.61 4.67 15.66 5C15.7 5.32 15.98 5.57 16.31 5.57L16.31 5.57Z" />
				<path id="Path 19" class="shp0" d="M3.98 17.03C4.14 17.09 4.32 17.07 4.48 17C4.63 16.92 4.75 16.78 4.81 16.61C4.93 16.23 5.08 15.85 5.23 15.47C5.37 15.14 5.21 14.75 4.87 14.62C4.54 14.48 4.16 14.64 4.02 14.97C3.85 15.38 3.7 15.79 3.56 16.2C3.45 16.55 3.63 16.92 3.98 17.03Z" />
				<path id="Path 20" class="shp0" d="M3.34 20.45C3.51 20.47 3.68 20.42 3.82 20.32C3.96 20.21 4.05 20.05 4.07 19.88C4.12 19.48 4.18 19.07 4.26 18.68C4.33 18.32 4.1 17.98 3.75 17.9C3.39 17.83 3.04 18.07 2.97 18.42C2.91 18.76 2.85 19.11 2.8 19.45L2.8 19.45L2.8 19.46L2.8 19.46L2.8 19.47L2.8 19.47L2.8 19.48L2.8 19.48L2.8 19.49L2.8 19.5L2.79 19.5L2.79 19.51L2.79 19.51L2.79 19.52L2.79 19.52L2.79 19.53L2.79 19.53L2.79 19.54L2.79 19.54C2.78 19.6 2.77 19.66 2.77 19.72C2.72 20.08 2.98 20.4 3.34 20.45Z" />
				<path id="Path 21" class="shp0" d="M19.73 4.98C19.75 4.98 19.77 4.98 19.78 4.98C20.19 4.95 20.6 4.94 21 4.94C21.36 4.94 21.66 4.64 21.66 4.28C21.66 3.92 21.36 3.62 21 3.62L20.99 3.62L20.99 3.62L20.98 3.62L20.97 3.62L20.97 3.62L20.96 3.62L20.96 3.62L20.95 3.63L20.95 3.63L20.94 3.63L20.94 3.63L20.93 3.63L20.93 3.63L20.92 3.63L20.92 3.63L20.91 3.63L20.91 3.63L20.9 3.63L20.9 3.63L20.89 3.63L20.89 3.63L20.88 3.63L20.88 3.63L20.87 3.63L20.87 3.63L20.86 3.63L20.86 3.63L20.85 3.63L20.85 3.63L20.84 3.63L20.84 3.63L20.83 3.63L20.83 3.63C20.45 3.63 20.07 3.64 19.69 3.67C19.34 3.7 19.07 4 19.08 4.35C19.09 4.7 19.38 4.98 19.73 4.98L19.73 4.98Z" />
				<path id="Path 22" class="shp0" d="M5.27 13.81C5.42 13.89 5.6 13.91 5.77 13.87C5.94 13.82 6.08 13.71 6.17 13.56C6.37 13.21 6.58 12.86 6.81 12.52C7.01 12.22 6.93 11.82 6.63 11.61C6.32 11.41 5.92 11.49 5.72 11.79C5.61 11.95 5.5 12.11 5.4 12.28L5.4 12.28L5.39 12.29L5.39 12.3L5.38 12.31L5.38 12.31L5.38 12.32L5.38 12.32L5.37 12.33L5.37 12.33L5.37 12.34L5.36 12.34L5.36 12.35L5.36 12.35L5.35 12.35L5.35 12.36L5.35 12.36L5.35 12.37L5.34 12.37L5.34 12.37L5.34 12.38L5.34 12.38L5.33 12.39L5.33 12.39L5.33 12.4L5.33 12.4L5.32 12.41L5.32 12.41L5.32 12.42L5.32 12.42L5.31 12.42L5.31 12.43L5.31 12.43L5.3 12.44L5.3 12.44L5.3 12.44L5.3 12.45L5.29 12.45L5.29 12.46L5.29 12.46L5.29 12.47L5.28 12.47L5.28 12.48L5.28 12.48L5.28 12.48L5.27 12.49L5.27 12.49L5.27 12.5L5.27 12.5L5.26 12.51L5.26 12.51L5.26 12.52L5.25 12.52L5.25 12.53L5.25 12.53L5.25 12.53L5.24 12.54L5.24 12.54L5.24 12.55L5.24 12.55L5.23 12.55L5.23 12.56L5.23 12.56L5.22 12.57L5.22 12.57L5.22 12.58L5.22 12.58L5.21 12.59L5.21 12.59L5.21 12.59L5.21 12.6L5.2 12.6L5.2 12.61L5.2 12.61L5.2 12.62L5.19 12.62L5.19 12.63L5.19 12.63L5.19 12.63L5.18 12.64L5.18 12.64L5.18 12.65L5.17 12.65L5.17 12.66L5.17 12.66L5.17 12.66L5.16 12.67L5.16 12.67L5.16 12.68L5.16 12.68L5.15 12.69L5.15 12.69L5.15 12.7L5.15 12.7L5.14 12.71L5.14 12.71L5.14 12.71L5.14 12.72L5.13 12.73L5.13 12.73L5.12 12.75L5.12 12.75C5.09 12.8 5.06 12.86 5.03 12.91C4.85 13.22 4.96 13.63 5.27 13.81Z" />
				<path id="Path 23" class="shp0" d="M7.6 11.06C7.79 11.06 7.98 10.97 8.1 10.83C8.37 10.53 8.65 10.22 8.93 9.94C9.19 9.68 9.19 9.27 8.93 9.01C8.68 8.75 8.26 8.75 8 9.01L8 9.01L8 9.01L7.99 9.03L7.99 9.03C7.78 9.23 7.58 9.44 7.39 9.65L7.39 9.65L7.38 9.66L7.38 9.66L7.37 9.67L7.37 9.67L7.37 9.68L7.37 9.68L7.36 9.68L7.36 9.68L7.36 9.69L7.35 9.69L7.35 9.7L7.35 9.7L7.34 9.71L7.34 9.71L7.34 9.71L7.33 9.72L7.33 9.72L7.33 9.72L7.32 9.73L7.32 9.73L7.32 9.73L7.31 9.74L7.31 9.74L7.31 9.75L7.3 9.75L7.3 9.75L7.3 9.76L7.29 9.76L7.29 9.76L7.28 9.77L7.28 9.77L7.28 9.78L7.28 9.78L7.27 9.79L7.27 9.79L7.26 9.79L7.26 9.79L7.25 9.81L7.25 9.81L7.24 9.82L7.24 9.82L7.23 9.83L7.23 9.83C7.19 9.88 7.15 9.92 7.11 9.97C6.94 10.16 6.9 10.44 7.01 10.67C7.11 10.91 7.35 11.06 7.6 11.06Z" />
				<path id="Path 24" class="shp0" d="M37.45 17.46C37.56 17.85 37.65 18.25 37.73 18.65C37.8 19 38.15 19.23 38.5 19.16C38.86 19.09 39.09 18.75 39.02 18.39C38.93 17.96 38.83 17.53 38.72 17.11C38.62 16.76 38.26 16.56 37.91 16.65C37.56 16.75 37.35 17.11 37.45 17.46L37.45 17.46Z" />
				<path id="Path 25" class="shp0" d="M35.18 12.5C35.38 12.8 35.79 12.88 36.09 12.68C36.39 12.48 36.47 12.07 36.27 11.77C36.12 11.55 35.98 11.34 35.82 11.14L35.82 11.13L35.81 11.12L35.81 11.12L35.8 11.11L35.8 11.11L35.8 11.1L35.8 11.1L35.79 11.1L35.79 11.09L35.79 11.09L35.78 11.08L35.78 11.08L35.78 11.08L35.78 11.07L35.77 11.07L35.77 11.06L35.76 11.06L35.76 11.06L35.76 11.05L35.76 11.05L35.75 11.04L35.75 11.04L35.75 11.03L35.74 11.03L35.74 11.02L35.74 11.02L35.73 11.02L35.73 11.01L35.72 11L35.72 11C35.65 10.9 35.57 10.8 35.5 10.7C35.27 10.42 34.86 10.37 34.57 10.59C34.29 10.81 34.24 11.23 34.46 11.51C34.71 11.83 34.95 12.16 35.18 12.5Z" />
				<path id="Path 26" class="shp0" d="M36.25 14.34C36.43 14.7 36.6 15.07 36.76 15.44C36.9 15.78 37.28 15.94 37.62 15.8C37.95 15.66 38.11 15.28 37.97 14.94C37.8 14.54 37.62 14.14 37.42 13.75C37.26 13.42 36.87 13.29 36.54 13.46C36.22 13.62 36.09 14.01 36.25 14.34Z" />
				<path id="Path 27" class="shp0" d="M3.37 23.93C3.74 23.9 4.01 23.59 3.98 23.23C3.95 22.82 3.94 22.41 3.94 22.01C3.94 21.65 3.64 21.35 3.28 21.35L3.28 21.35C2.92 21.35 2.62 21.65 2.62 22.01C2.62 22.36 2.64 22.71 2.66 23.06L2.66 23.06L2.66 23.08L2.66 23.08L2.66 23.1L2.66 23.11L2.66 23.11L2.66 23.12L2.66 23.12L2.66 23.13L2.66 23.13L2.66 23.14L2.66 23.14L2.66 23.15L2.66 23.15L2.66 23.16L2.66 23.16L2.66 23.17L2.66 23.17C2.67 23.22 2.67 23.27 2.67 23.32C2.7 23.66 2.98 23.93 3.33 23.93C3.34 23.93 3.36 23.93 3.37 23.93Z" />
				<path id="Path 28" class="shp0" d="M38.62 20.06C38.26 20.08 37.99 20.4 38.02 20.76C38.05 21.16 38.06 21.57 38.06 21.98C38.06 22.34 38.36 22.63 38.72 22.63L38.72 22.63C39.08 22.63 39.38 22.34 39.37 21.98C39.37 21.54 39.36 21.1 39.33 20.66C39.3 20.32 39.02 20.06 38.67 20.05C38.66 20.05 38.64 20.06 38.62 20.06Z" />
				<path id="Path 29" class="shp0" d="M29.42 7.15C29.77 7.35 30.12 7.57 30.46 7.79C30.76 8 31.17 7.91 31.37 7.61C31.57 7.31 31.49 6.9 31.19 6.7C31.13 6.66 31.07 6.62 31.01 6.59L31.01 6.59L30.99 6.57L30.99 6.57L30.97 6.56L30.97 6.56L30.95 6.55L30.95 6.55L30.93 6.54L30.93 6.54L30.91 6.52L30.91 6.52L30.89 6.51L30.89 6.51L30.87 6.5L30.87 6.5L30.85 6.49L30.85 6.49C30.59 6.32 30.33 6.16 30.07 6.01C29.75 5.83 29.35 5.94 29.17 6.26C28.99 6.58 29.1 6.98 29.42 7.15L29.42 7.15Z" />
				<path id="Path 30" class="shp0" d="M26.36 5.8C26.75 5.92 27.13 6.07 27.51 6.22C27.84 6.36 28.22 6.2 28.36 5.86C28.5 5.53 28.34 5.15 28 5.01C27.66 4.86 27.3 4.73 26.95 4.61L26.95 4.61L26.93 4.6L26.93 4.6L26.91 4.6L26.91 4.6L26.89 4.59L26.89 4.59L26.87 4.58L26.87 4.58L26.86 4.58L26.86 4.58L26.85 4.58L26.85 4.58L26.84 4.57L26.84 4.57L26.83 4.57L26.83 4.57L26.82 4.57L26.82 4.57L26.81 4.56L26.81 4.56L26.81 4.56L26.8 4.56L26.79 4.56L26.79 4.56L26.79 4.56L26.78 4.55L26.78 4.55L26.77 4.55C26.43 4.44 26.06 4.63 25.95 4.97C25.83 5.31 26.02 5.68 26.36 5.8Z" />
				<path id="Path 31" class="shp0" d="M33.05 9.92C33.3 10.17 33.72 10.17 33.97 9.91C34.23 9.66 34.23 9.24 33.97 8.99C33.86 8.87 33.74 8.75 33.62 8.64L33.62 8.64L33.6 8.63L33.6 8.63L33.59 8.61L33.59 8.61L33.58 8.61L33.58 8.61L33.57 8.59L33.57 8.59L33.56 8.59L33.56 8.59L33.55 8.58L33.55 8.58L33.54 8.57L33.54 8.57L33.53 8.56L33.53 8.56L33.52 8.55L33.52 8.55L33.51 8.54L33.51 8.54L33.51 8.54L33.5 8.54L33.5 8.53L33.5 8.53L33.49 8.52L33.49 8.52L33.48 8.52L33.48 8.52L33.48 8.51L33.47 8.51L33.47 8.5L33.47 8.5L33.46 8.5L33.46 8.49L33.45 8.49L33.45 8.49L33.45 8.48L33.44 8.48L33.44 8.47L33.44 8.47L33.43 8.47L33.43 8.47L33.42 8.46L33.42 8.46L33.42 8.45L33.41 8.45L33.41 8.45L33.41 8.44L33.4 8.44L33.4 8.44L33.39 8.43L33.39 8.43L33.39 8.43L33.37 8.42L33.37 8.41L33.37 8.41L33.37 8.41L33.36 8.4L33.36 8.4L33.35 8.4L33.35 8.39L33.33 8.38L33.33 8.38L33.33 8.37L33.33 8.37C33.22 8.28 33.12 8.18 33.01 8.09C32.73 7.85 32.32 7.89 32.08 8.16C31.85 8.43 31.88 8.85 32.15 9.09C32.46 9.35 32.76 9.63 33.05 9.92Z" />
				<path id="Path 32" class="shp0" d="M23.1 5.07C23.5 5.12 23.9 5.18 24.3 5.26C24.66 5.33 25 5.1 25.07 4.74C25.14 4.38 24.91 4.04 24.55 3.97C24.12 3.89 23.69 3.82 23.26 3.76C22.9 3.72 22.57 3.97 22.53 4.33C22.48 4.69 22.74 5.02 23.1 5.07L23.1 5.07Z" />
				<path id="Path 33" class="shp0" d="M13.06 6.81C13.17 6.81 13.27 6.78 13.36 6.74C13.72 6.56 14.09 6.39 14.47 6.23C14.8 6.09 14.96 5.71 14.82 5.38C14.68 5.04 14.3 4.88 13.96 5.02C13.62 5.16 13.29 5.31 12.96 5.47L12.95 5.47L12.94 5.48L12.94 5.48L12.93 5.49L12.93 5.49L12.92 5.49L12.92 5.49L12.91 5.5L12.91 5.5L12.9 5.5L12.9 5.5L12.89 5.5L12.89 5.51L12.89 5.51L12.88 5.51L12.87 5.51L12.87 5.52L12.87 5.52L12.86 5.52L12.86 5.52C12.83 5.54 12.8 5.55 12.77 5.57C12.5 5.7 12.36 6.01 12.43 6.3C12.5 6.6 12.76 6.81 13.06 6.81L13.06 6.81Z" />
				<path id="Path 34" class="shp0" d="M34.41 32.93C34.22 32.93 34.03 33.01 33.91 33.16C33.64 33.46 33.37 33.76 33.08 34.05C32.82 34.31 32.82 34.72 33.08 34.98C33.34 35.24 33.75 35.24 34.01 34.98L34.01 34.98L34.01 34.97L34.01 34.97L34.02 34.96L34.02 34.96L34.03 34.96L34.03 34.96L34.04 34.95L34.04 34.95L34.04 34.94L34.04 34.94L34.05 34.94L34.05 34.93L34.06 34.93L34.06 34.93L34.06 34.92L34.07 34.91L34.07 34.91L34.08 34.91L34.08 34.91L34.09 34.89L34.09 34.89L34.1 34.89L34.1 34.89C34.38 34.6 34.65 34.31 34.9 34.02C35.07 33.82 35.11 33.55 35 33.31C34.9 33.08 34.66 32.93 34.41 32.93L34.41 32.93Z" />
				<path id="Path 35" class="shp0" d="M31.88 35.33C31.74 35.33 31.6 35.38 31.48 35.47C31.16 35.71 30.83 35.96 30.49 36.18C30.19 36.38 30.11 36.79 30.31 37.09C30.52 37.39 30.92 37.47 31.22 37.27C31.59 37.03 31.94 36.77 32.29 36.5C32.51 36.33 32.6 36.03 32.51 35.77C32.41 35.5 32.16 35.33 31.88 35.33L31.88 35.33Z" />
				<path id="Path 36" class="shp0" d="M28.95 37.18C28.85 37.18 28.75 37.21 28.65 37.25C28.29 37.44 27.92 37.61 27.55 37.76C27.21 37.9 27.05 38.28 27.19 38.62C27.33 38.95 27.72 39.11 28.05 38.97L28.08 38.96L28.08 38.96L28.1 38.95L28.1 38.95L28.12 38.94L28.12 38.94L28.14 38.94L28.14 38.94L28.16 38.93L28.16 38.93C28.18 38.92 28.2 38.91 28.22 38.9L28.22 38.9C28.48 38.79 28.72 38.68 28.97 38.56L28.97 38.56L28.99 38.55L28.99 38.55L29 38.55L29 38.55L29.01 38.54L29.01 38.54L29.02 38.54L29.02 38.54L29.03 38.53L29.03 38.53L29.03 38.53L29.04 38.53L29.04 38.53L29.05 38.52L29.05 38.52L29.06 38.52L29.06 38.52L29.07 38.51L29.07 38.51L29.08 38.51L29.08 38.51L29.1 38.5L29.1 38.5C29.15 38.48 29.19 38.45 29.24 38.43C29.52 38.29 29.66 37.99 29.59 37.69C29.52 37.39 29.25 37.18 28.95 37.18L28.95 37.18Z" />
				<path id="Path 37" class="shp0" d="M38.66 23.53C38.49 23.51 38.32 23.56 38.18 23.67C38.04 23.78 37.95 23.93 37.93 24.11C37.88 24.51 37.82 24.91 37.74 25.31C37.67 25.66 37.9 26.01 38.26 26.08C38.61 26.15 38.96 25.92 39.03 25.56L39.04 25.51L39.04 25.51L39.04 25.49L39.04 25.49L39.04 25.48L39.04 25.48L39.05 25.47L39.05 25.47L39.05 25.46L39.05 25.46L39.05 25.45L39.05 25.45L39.05 25.44L39.05 25.44L39.05 25.43L39.05 25.43L39.05 25.42L39.06 25.42L39.06 25.41L39.06 25.41L39.06 25.4L39.06 25.4L39.06 25.39L39.06 25.39L39.06 25.38L39.06 25.38L39.06 25.37L39.07 25.37L39.07 25.37L39.07 25.35L39.07 25.35L39.07 25.35L39.07 25.35C39.14 24.99 39.19 24.63 39.24 24.26C39.28 23.91 39.02 23.58 38.66 23.53Z" />
				<path id="Path 38" class="shp0" d="M25.71 38.43C25.65 38.43 25.59 38.44 25.53 38.45C25.14 38.56 24.74 38.65 24.35 38.73C23.99 38.8 23.76 39.15 23.83 39.5C23.9 39.86 24.24 40.09 24.6 40.02C25.03 39.94 25.46 39.83 25.88 39.72C26.2 39.63 26.4 39.32 26.36 39C26.31 38.67 26.03 38.43 25.71 38.43L25.71 38.43Z" />
				<path id="Path 39" class="shp0" d="M38.03 26.95C37.86 26.9 37.68 26.91 37.53 26.99C37.37 27.07 37.25 27.21 37.2 27.37C37.07 27.75 36.93 28.14 36.78 28.51C36.64 28.85 36.8 29.23 37.13 29.37C37.47 29.51 37.85 29.35 37.99 29.01C38.16 28.61 38.31 28.2 38.45 27.78C38.56 27.44 38.37 27.07 38.03 26.95Z" />
				<path id="Path 40" class="shp0" d="M4.55 26.53C4.44 26.14 4.34 25.74 4.27 25.34C4.19 24.98 3.85 24.75 3.49 24.82C3.14 24.89 2.91 25.24 2.98 25.59L2.99 25.63L2.99 25.64L2.99 25.65L2.99 25.66L2.99 25.67L2.99 25.68L3 25.68L3 25.69L3 25.69L3 25.7L3 25.7L3 25.71L3 25.71L3 25.72L3 25.72L3 25.73L3.01 25.73L3.01 25.74L3.01 25.74L3.01 25.75L3.01 25.75L3.01 25.76L3.01 25.76L3.01 25.77L3.01 25.77L3.02 25.78L3.02 25.78L3.02 25.79L3.02 25.79L3.02 25.8L3.02 25.8L3.02 25.81L3.02 25.81L3.02 25.82L3.02 25.82L3.03 25.83L3.03 25.83L3.03 25.84L3.03 25.84L3.03 25.85L3.03 25.85L3.03 25.86L3.03 25.86L3.03 25.87L3.03 25.87L3.04 25.88L3.04 25.88L3.04 25.89L3.04 25.89L3.04 25.9L3.04 25.9L3.04 25.91L3.04 25.91L3.05 25.93L3.05 25.93L3.05 25.95L3.05 25.95L3.06 25.97L3.06 25.97C3.09 26.12 3.13 26.28 3.16 26.43L3.16 26.43L3.17 26.45L3.17 26.45L3.17 26.47L3.17 26.47L3.18 26.49L3.18 26.49L3.18 26.51L3.18 26.51L3.19 26.53L3.19 26.53L3.19 26.55L3.19 26.55L3.2 26.57L3.2 26.57L3.2 26.59L3.2 26.59L3.21 26.6L3.21 26.6L3.21 26.61L3.21 26.61L3.21 26.62L3.21 26.62L3.21 26.63L3.21 26.63L3.22 26.64L3.22 26.64L3.22 26.65L3.22 26.65L3.22 26.66L3.22 26.66L3.22 26.67L3.23 26.67L3.23 26.68L3.23 26.68L3.23 26.69L3.23 26.69L3.23 26.7L3.23 26.7L3.23 26.71L3.24 26.71L3.24 26.72L3.24 26.72L3.24 26.72L3.24 26.73L3.24 26.74L3.24 26.74L3.24 26.74L3.25 26.75L3.25 26.76L3.25 26.76L3.25 26.76L3.25 26.77L3.25 26.77L3.25 26.78L3.26 26.78L3.26 26.79L3.26 26.79L3.26 26.8L3.26 26.8L3.26 26.81L3.26 26.81L3.27 26.82L3.27 26.82L3.27 26.83L3.27 26.83L3.27 26.84L3.27 26.84L3.27 26.85L3.27 26.85L3.28 26.86L3.28 26.86L3.28 26.87L3.28 26.87C3.37 27.22 3.74 27.43 4.09 27.33C4.44 27.24 4.64 26.87 4.55 26.53L4.55 26.53Z" />
				<path id="Path 41" class="shp0" d="M36.74 30.18C36.42 30 36.02 30.11 35.84 30.43C35.64 30.78 35.43 31.13 35.2 31.46C35 31.76 35.08 32.17 35.38 32.37C35.68 32.58 36.09 32.49 36.29 32.19C36.35 32.11 36.4 32.03 36.45 31.96L36.45 31.95L36.46 31.94L36.46 31.94L36.46 31.93L36.46 31.93L36.47 31.92L36.47 31.92L36.48 31.91L36.48 31.91L36.49 31.9L36.49 31.89L36.49 31.89L36.49 31.89L36.5 31.88L36.5 31.88L36.5 31.87L36.5 31.87L36.51 31.86L36.51 31.86L36.51 31.85L36.52 31.85L36.52 31.85L36.52 31.84L36.52 31.84L36.53 31.83L36.53 31.83L36.53 31.82L36.54 31.82L36.54 31.81L36.54 31.81L36.55 31.8L36.55 31.8L36.55 31.8L36.55 31.79L36.56 31.79L36.56 31.79L36.56 31.78L36.56 31.78L36.57 31.77L36.57 31.77L36.57 31.76L36.57 31.76L36.58 31.75L36.58 31.75L36.58 31.74L36.58 31.74L36.59 31.73L36.59 31.73L36.6 31.72L36.6 31.72L36.61 31.7L36.61 31.7L36.62 31.69L36.62 31.69L36.63 31.67L36.63 31.67L36.64 31.66L36.64 31.66L36.65 31.64L36.65 31.64C36.69 31.57 36.74 31.49 36.78 31.42L36.78 31.42L36.79 31.4L36.79 31.4L36.8 31.39L36.8 31.39L36.8 31.38L36.8 31.38L36.81 31.38L36.81 31.38L36.81 31.37L36.81 31.37L36.82 31.36L36.82 31.36L36.82 31.35L36.82 31.35L36.83 31.34L36.83 31.34L36.83 31.33L36.83 31.33L36.84 31.32L36.84 31.32L36.84 31.32L36.85 31.31L36.85 31.31L36.85 31.3L36.85 31.3L36.86 31.29L36.86 31.29C36.9 31.22 36.94 31.15 36.98 31.07C37.16 30.76 37.05 30.36 36.74 30.18Z" />
				<path id="Path 42" class="shp0" d="M6.81 31.49C6.61 31.19 6.21 31.11 5.9 31.31C5.6 31.51 5.52 31.92 5.72 32.22C5.9 32.47 6.07 32.72 6.26 32.97L6.26 32.97L6.27 32.99L6.27 32.99L6.28 33L6.28 33L6.28 33L6.28 33L6.29 33.01L6.29 33.01L6.29 33.02L6.29 33.02L6.3 33.03L6.3 33.03L6.31 33.04L6.31 33.04L6.31 33.04L6.31 33.05L6.32 33.05L6.32 33.05L6.32 33.06L6.33 33.06L6.33 33.07L6.33 33.07L6.34 33.08L6.34 33.08L6.34 33.08L6.35 33.09L6.35 33.09L6.36 33.11L6.36 33.11C6.4 33.17 6.45 33.23 6.5 33.28C6.72 33.57 7.13 33.62 7.42 33.4C7.7 33.17 7.75 32.76 7.53 32.48C7.28 32.16 7.04 31.82 6.81 31.49Z" />
				<path id="Path 43" class="shp0" d="M22.28 39.02C22.27 39.02 22.25 39.02 22.23 39.02C21.83 39.05 21.42 39.06 21.02 39.06C20.65 39.06 20.36 39.36 20.36 39.72C20.36 40.08 20.65 40.37 21.01 40.37C21.45 40.37 21.89 40.36 22.33 40.33C22.68 40.3 22.95 40 22.94 39.65C22.92 39.3 22.63 39.02 22.28 39.02Z" />
				<path id="Path 44" class="shp0" d="M12.57 36.84C12.21 36.64 11.87 36.42 11.53 36.2C11.23 36 10.82 36.08 10.62 36.38C10.42 36.68 10.5 37.09 10.8 37.29C10.84 37.31 10.87 37.34 10.91 37.36L10.91 37.36L10.92 37.37L10.93 37.37L10.94 37.38L10.94 37.38L10.95 37.39L10.95 37.39L10.96 37.39L10.96 37.4L10.97 37.4L10.97 37.4L10.98 37.41L10.98 37.41L10.98 37.41L10.99 37.41L10.99 37.42L11 37.42L11 37.42L11 37.42L11.01 37.43L11.01 37.43L11.02 37.43L11.02 37.43L11.03 37.44L11.03 37.44L11.04 37.44L11.04 37.45L11.04 37.45L11.05 37.45L11.05 37.45L11.06 37.46L11.06 37.46L11.07 37.46L11.07 37.46L11.07 37.47L11.08 37.47L11.08 37.47L11.09 37.48L11.09 37.48L11.1 37.48L11.1 37.48L11.1 37.49L11.11 37.49L11.11 37.49L11.12 37.5L11.12 37.5L11.13 37.5L11.13 37.5L11.14 37.51L11.14 37.51L11.14 37.51L11.15 37.51L11.15 37.52L11.16 37.52L11.16 37.52L11.16 37.53L11.17 37.53L11.17 37.53L11.18 37.53L11.18 37.54L11.19 37.54L11.19 37.54L11.2 37.55L11.2 37.55L11.2 37.55L11.21 37.56L11.21 37.56L11.22 37.56L11.22 37.56L11.22 37.56L11.23 37.57L11.24 37.57L11.24 37.57L11.24 37.58L11.25 37.58L11.25 37.58L11.26 37.58L11.26 37.59L11.26 37.59L11.27 37.59L11.27 37.59L11.28 37.6L11.28 37.6L11.3 37.61L11.3 37.61L11.3 37.61L11.31 37.61L11.31 37.62L11.32 37.62L11.32 37.62L11.32 37.63L11.33 37.63L11.33 37.63L11.34 37.64L11.34 37.64L11.36 37.65L11.36 37.65L11.38 37.66L11.38 37.66L11.38 37.66L11.38 37.66L11.39 37.67L11.4 37.67L11.4 37.67L11.4 37.67L11.42 37.68L11.42 37.69L11.44 37.7L11.44 37.7L11.44 37.7L11.44 37.7L11.45 37.71L11.46 37.71L11.46 37.71L11.46 37.71L11.47 37.72L11.47 37.72L11.48 37.72L11.48 37.72L11.5 37.73L11.5 37.73L11.52 37.74L11.52 37.74L11.52 37.75L11.52 37.75L11.53 37.75L11.54 37.76L11.54 37.76L11.54 37.76L11.55 37.76L11.55 37.77L11.56 37.77L11.56 37.77L11.57 37.78L11.57 37.78L11.58 37.78L11.58 37.78L11.58 37.78L11.59 37.79L11.59 37.79L11.6 37.79L11.6 37.79L11.61 37.8L11.61 37.8L11.62 37.8L11.62 37.81L11.62 37.81L11.63 37.81L11.63 37.81L11.64 37.82L11.64 37.82L11.64 37.82L11.65 37.82L11.65 37.83L11.66 37.83L11.66 37.83L11.67 37.84L11.67 37.84L11.68 37.84L11.68 37.84L11.7 37.85L11.7 37.85L11.7 37.86L11.7 37.86C11.78 37.9 11.85 37.94 11.92 37.98C12.23 38.16 12.63 38.05 12.81 37.73C12.99 37.42 12.88 37.02 12.57 36.84L12.57 36.84Z" />
				<path id="Path 45" class="shp0" d="M5.74 29.65C5.56 29.29 5.39 28.91 5.24 28.54C5.1 28.21 4.71 28.05 4.38 28.19C4.04 28.32 3.88 28.71 4.02 29.04L4.04 29.08L4.04 29.08L4.04 29.09L4.04 29.1L4.05 29.11L4.05 29.12L4.06 29.12L4.06 29.12L4.06 29.13L4.06 29.13L4.06 29.14L4.06 29.14L4.07 29.15L4.07 29.15L4.07 29.16L4.07 29.16L4.08 29.17L4.08 29.17L4.08 29.18L4.08 29.18L4.09 29.2L4.09 29.2L4.1 29.22L4.1 29.22L4.1 29.22L4.1 29.23L4.1 29.24L4.11 29.24L4.11 29.24L4.11 29.25L4.11 29.26L4.11 29.26L4.12 29.26L4.12 29.26L4.12 29.27L4.12 29.28L4.12 29.28L4.12 29.28L4.13 29.29L4.13 29.3L4.13 29.3L4.13 29.3L4.14 29.31L4.14 29.31L4.14 29.32L4.14 29.32L4.14 29.33L4.15 29.33L4.15 29.34L4.15 29.34L4.15 29.35L4.15 29.35L4.16 29.36L4.16 29.36L4.16 29.37L4.16 29.37L4.17 29.38L4.17 29.38L4.17 29.38L4.17 29.39L4.17 29.4L4.17 29.4L4.18 29.4L4.18 29.41L4.18 29.41L4.18 29.42L4.19 29.42L4.19 29.43L4.19 29.43L4.19 29.44L4.19 29.44L4.2 29.44L4.2 29.45L4.2 29.45L4.2 29.46L4.2 29.46L4.21 29.47L4.21 29.47L4.21 29.48L4.21 29.48L4.21 29.49L4.22 29.49L4.22 29.5L4.22 29.5L4.22 29.51L4.22 29.51L4.23 29.52L4.23 29.52L4.23 29.52L4.23 29.53L4.23 29.53L4.24 29.54L4.24 29.54L4.24 29.55L4.24 29.55L4.25 29.56L4.25 29.56L4.25 29.57L4.25 29.57L4.25 29.58L4.26 29.58L4.26 29.59L4.26 29.59L4.26 29.6L4.26 29.6L4.27 29.6L4.27 29.61L4.27 29.61L4.27 29.62L4.28 29.62L4.28 29.63L4.28 29.63L4.28 29.63L4.28 29.64L4.29 29.65L4.29 29.65L4.29 29.65L4.29 29.66L4.29 29.66L4.3 29.67L4.3 29.67L4.3 29.68L4.3 29.68L4.31 29.69L4.31 29.69L4.31 29.7L4.31 29.7L4.31 29.71L4.32 29.71L4.32 29.72L4.32 29.72L4.32 29.73L4.32 29.73L4.33 29.75L4.33 29.75L4.34 29.76L4.34 29.77L4.35 29.79L4.35 29.79C4.42 29.94 4.49 30.09 4.57 30.24C4.73 30.56 5.13 30.69 5.45 30.53C5.77 30.37 5.9 29.97 5.74 29.65L5.74 29.65Z" />
				<path id="Path 46" class="shp0" d="M8.94 34.07C8.69 33.82 8.27 33.82 8.02 34.07C7.76 34.33 7.76 34.75 8.02 35C8.04 35.03 8.07 35.06 8.1 35.09L8.1 35.09L8.11 35.1L8.11 35.1L8.12 35.1L8.12 35.1L8.12 35.11L8.13 35.11L8.13 35.12L8.14 35.12L8.14 35.12L8.14 35.13L8.15 35.13L8.15 35.13L8.15 35.13L8.16 35.14L8.16 35.14L8.16 35.15L8.17 35.15C8.41 35.39 8.66 35.62 8.91 35.84L8.91 35.84L8.93 35.85L8.93 35.85L8.93 35.86L8.94 35.86L8.94 35.86L8.94 35.87L8.95 35.87L8.95 35.87L8.95 35.88L8.96 35.88L8.96 35.88L8.97 35.89L8.97 35.89L8.98 35.9L8.98 35.9C9.25 36.13 9.66 36.1 9.9 35.83C10.14 35.56 10.11 35.14 9.84 34.9C9.53 34.64 9.23 34.36 8.94 34.07Z" />
				<path id="Path 47" class="shp0" d="M18.89 38.93C18.48 38.88 18.08 38.82 17.68 38.74C17.33 38.67 16.98 38.9 16.91 39.25C16.84 39.61 17.07 39.96 17.43 40.03C17.86 40.11 18.29 40.18 18.73 40.23C18.75 40.24 18.78 40.24 18.81 40.24C19.15 40.24 19.44 39.97 19.46 39.62C19.48 39.28 19.23 38.97 18.89 38.93Z" />
				<path id="Path 48" class="shp0" d="M15.62 38.2C15.24 38.07 14.85 37.93 14.48 37.77C14.15 37.63 13.76 37.79 13.62 38.13C13.48 38.46 13.64 38.85 13.98 38.99C14.38 39.15 14.8 39.31 15.21 39.44C15.56 39.56 15.93 39.37 16.04 39.03C16.15 38.68 15.97 38.31 15.62 38.2L15.62 38.2Z" />
				<path id="Path 49" fill-rule="evenodd" class="shp0" d="M30.35 33.81C30.35 34.54 29.76 35.12 29.04 35.12L12.96 35.12C12.24 35.12 11.65 34.54 11.65 33.81L11.65 22L10.3 22C9.43 22.02 8.64 21.5 8.32 20.69C8.05 19.95 8.27 19.13 8.87 18.62L19.57 9.39C20.4 8.7 21.6 8.7 22.43 9.39L25.92 12.41L25.92 12.32C25.92 11.6 26.51 11.01 27.23 11.01L29.86 11.01C30.58 11.01 31.17 11.6 31.17 12.32L31.17 16.94L33.13 18.62C33.73 19.13 33.95 19.95 33.68 20.69C33.36 21.5 32.57 22.02 31.7 22L30.35 22L30.35 33.81ZM31.7 20.69C32.39 20.69 32.74 20.02 32.27 19.62L29.86 17.54L29.86 12.32L27.23 12.32L27.23 15.27L21.57 10.39C21.24 10.12 20.76 10.12 20.43 10.39L9.73 19.62C9.26 20.02 9.61 20.69 10.3 20.69L12.96 20.69L12.96 33.81L17.06 33.81L17.06 27.25C17.06 25.08 18.83 23.31 21 23.31C23.17 23.31 24.94 25.08 24.94 27.25L24.94 33.81L29.04 33.81L29.04 20.69L31.7 20.69ZM23.62 27.25C23.62 25.8 22.45 24.62 21 24.62C19.55 24.62 18.37 25.8 18.37 27.25L18.37 33.81L23.62 33.81L23.62 27.25Z" />
			</g>
		</g>
	</g>
</svg>