<svg xmlns="http://www.w3.org/2000/svg" viewBox="0 0 41 40" width="41" height="40">
	<defs>
		<clipPath clipPathUnits="userSpaceOnUse" id="cp1">
			<path d="M-1101 -685L339 -685L339 339L-1101 339Z" />
		</clipPath>
	</defs>
	<style>
		tspan { white-space:pre }
		.shp0 { fill: #1e2e74 } 
	</style>
	<g id="Page1 Overveiw" clip-path="url(#cp1)">
		<g id="Group 14">
			<g id="noun_classroom_1425955">
				<path id="Path 4" fill-rule="evenodd" class="shp0" d="M32.42 2.85L32.42 13.94C32.91 14.04 33.28 14.47 33.28 14.99L33.28 15.71C33.28 16.3 32.79 16.78 32.2 16.78L7.98 16.78C7.38 16.78 6.9 16.3 6.9 15.71L6.9 14.99C6.9 14.47 7.27 14.04 7.76 13.94L7.76 2.85C7.27 2.75 6.9 2.31 6.9 1.8L6.9 1.08C6.9 0.48 7.38 0 7.98 0L32.2 0C32.79 0 33.28 0.48 33.28 1.08L33.28 1.8C33.28 2.31 32.91 2.75 32.42 2.85ZM31.13 2.08L9.05 2.08L9.05 14.7L31.13 14.7L31.13 2.08ZM12.67 5.67C12.67 5.31 12.96 5.03 13.32 5.03L20.75 5.03C21.11 5.03 21.4 5.31 21.4 5.67C21.4 6.03 21.11 6.32 20.75 6.32L13.32 6.32C12.96 6.32 12.67 6.03 12.67 5.67ZM22.5 5.67C22.5 5.31 22.79 5.03 23.14 5.03L26.86 5.03C27.22 5.03 27.51 5.31 27.51 5.67C27.51 6.03 27.22 6.32 26.86 6.32L23.14 6.32C22.79 6.32 22.5 6.03 22.5 5.67ZM12.67 8.4C12.67 8.05 12.96 7.76 13.32 7.76L18.17 7.76C18.52 7.76 18.81 8.05 18.81 8.4C18.81 8.76 18.52 9.05 18.17 9.05L13.32 9.05C12.96 9.05 12.67 8.76 12.67 8.4ZM12.67 11.13C12.67 10.78 12.96 10.49 13.32 10.49L18.17 10.49C18.52 10.49 18.81 10.78 18.81 11.13C18.81 11.49 18.52 11.78 18.17 11.78L13.32 11.78C12.96 11.78 12.67 11.49 12.67 11.13ZM23.17 11.13C23.17 11.49 22.88 11.78 22.53 11.78L20.65 11.78C20.3 11.78 20.01 11.49 20.01 11.13C20.01 10.78 20.3 10.49 20.65 10.49L22.53 10.49C22.88 10.49 23.17 10.78 23.17 11.13ZM19.74 39.14C19.74 39.5 19.45 39.79 19.09 39.79L0.73 39.79C0.38 39.79 0.09 39.5 0.09 39.14C0.09 38.79 0.38 38.5 0.73 38.5L1.88 38.5L1.88 37.79C1.88 36.27 3.12 35.04 4.63 35.04L6.34 35.04C7.86 35.04 9.1 36.27 9.1 37.79L9.1 38.5L10.73 38.5L10.73 37.79C10.73 36.27 11.96 35.04 13.48 35.04L15.19 35.04C16.71 35.04 17.94 36.27 17.94 37.79L17.94 38.5L19.09 38.5C19.45 38.5 19.74 38.79 19.74 39.14ZM2.99 32.12C2.99 30.74 4.11 29.62 5.49 29.62C6.87 29.62 7.99 30.74 7.99 32.12C7.99 33.49 6.87 34.61 5.49 34.61C4.11 34.61 2.99 33.49 2.99 32.12ZM14.34 29.62C15.71 29.62 16.84 30.74 16.84 32.12C16.84 33.49 15.71 34.61 14.34 34.61C12.96 34.61 11.84 33.49 11.84 32.12C11.84 30.74 12.96 29.62 14.34 29.62ZM40.09 39.14C40.09 39.5 39.8 39.79 39.44 39.79L21.09 39.79C20.73 39.79 20.44 39.5 20.44 39.14C20.44 38.79 20.73 38.5 21.09 38.5L22.23 38.5L22.23 37.79C22.23 36.27 23.47 35.04 24.99 35.04L26.7 35.04C28.21 35.04 29.45 36.27 29.45 37.79L29.45 38.5L31.08 38.5L31.08 37.79C31.08 36.27 32.32 35.04 33.83 35.04L35.54 35.04C37.06 35.04 38.3 36.27 38.3 37.79L38.3 38.5L39.44 38.5C39.8 38.5 40.09 38.79 40.09 39.14ZM25.84 29.62C27.22 29.62 28.34 30.74 28.34 32.12C28.34 33.49 27.22 34.61 25.84 34.61C24.46 34.61 23.34 33.49 23.34 32.12C23.34 30.74 24.46 29.62 25.84 29.62ZM37.19 32.12C37.19 33.49 36.07 34.61 34.69 34.61C33.31 34.61 32.19 33.49 32.19 32.12C32.19 30.74 33.31 29.62 34.69 29.62C36.07 29.62 37.19 30.74 37.19 32.12ZM3.35 27.75C3.35 27.4 3.64 27.11 4 27.11L4.86 27.11L4.86 26.47C4.86 25.29 5.82 24.32 7.01 24.32L8.76 24.32C9.95 24.32 10.91 25.29 10.91 26.47L10.91 27.11L12.09 27.11L12.09 26.47C12.09 25.29 13.06 24.32 14.24 24.32L16 24.32C17.18 24.32 18.15 25.29 18.15 26.47L18.15 27.11L19.01 27.11C19.37 27.11 19.65 27.4 19.65 27.75C19.65 28.11 19.37 28.4 19.01 28.4L4 28.4C3.64 28.4 3.35 28.11 3.35 27.75ZM5.77 21.92C5.77 20.75 6.72 19.8 7.89 19.8C9.06 19.8 10.01 20.75 10.01 21.92C10.01 23.09 9.06 24.04 7.89 24.04C6.72 24.04 5.77 23.09 5.77 21.92ZM15.12 19.8C16.29 19.8 17.24 20.75 17.24 21.92C17.24 23.09 16.29 24.04 15.12 24.04C13.95 24.04 13 23.09 13 21.92C13 20.75 13.95 19.8 15.12 19.8ZM25.06 24.04C23.89 24.04 22.94 23.09 22.94 21.92C22.94 20.75 23.89 19.8 25.06 19.8C26.23 19.8 27.18 20.75 27.18 21.92C27.18 23.09 26.23 24.04 25.06 24.04ZM32.29 19.8C33.46 19.8 34.41 20.75 34.41 21.92C34.41 23.09 33.46 24.04 32.29 24.04C31.12 24.04 30.17 23.09 30.17 21.92C30.17 20.75 31.12 19.8 32.29 19.8ZM33.17 24.32C34.35 24.32 35.32 25.29 35.32 26.47L35.32 27.11L36.18 27.11C36.53 27.11 36.82 27.4 36.82 27.75C36.82 28.11 36.53 28.4 36.18 28.4L21.17 28.4C20.81 28.4 20.52 28.11 20.52 27.75C20.52 27.4 20.81 27.11 21.17 27.11L22.03 27.11L22.03 26.47C22.03 25.29 22.99 24.32 24.18 24.32L25.93 24.32C27.12 24.32 28.08 25.29 28.08 26.47L28.08 27.11L29.26 27.11L29.26 26.47C29.26 25.29 30.23 24.32 31.41 24.32L33.17 24.32Z" />
			</g>
		</g>
	</g>
</svg>