<svg xmlns="http://www.w3.org/2000/svg" viewBox="0 0 24 30" width="24" height="30">
	<defs>
		<clipPath clipPathUnits="userSpaceOnUse" id="cp1">
			<path d="M-619 -501L821 -501L821 523L-619 523Z" />
		</clipPath>
	</defs>
	<style>
		tspan { white-space:pre }
		.shp0 { fill: #2f3e7e } 
	</style>
	<g id="Page 3 Test Req" clip-path="url(#cp1)">
		<g id="Group 31">
			<g id="noun_application_168505">
				<g id="Group 30">
					<path id="Path 77" fill-rule="evenodd" class="shp0" d="M0.94 1C7.4 1 13.86 1 20.31 1L20.31 2.6L21.87 2.6L21.87 4.16L23.4 4.16L23.4 24.91L18.53 29.78L4.03 29.78L4.03 28.22L2.5 28.22L2.5 26.62L0.94 26.62L0.94 1ZM1.57 25.99L15 25.99L15 21.31L19.69 21.31L19.69 1.62L1.57 1.62L1.57 25.99ZM20.31 21.75L19.15 22.91L21.25 22.91L21.25 3.23L20.31 3.23L20.31 21.75ZM14.9 7.94C14.9 10.13 13.12 11.91 10.93 11.91C8.74 11.91 6.95 10.13 6.95 7.94C6.95 5.75 8.74 3.96 10.93 3.96C13.12 3.96 14.9 5.75 14.9 7.94ZM7.58 7.94C7.58 9.79 9.07 11.29 10.93 11.29C12.78 11.29 14.27 9.79 14.27 7.94C14.27 6.08 12.78 4.59 10.93 4.59C9.07 4.59 7.58 6.08 7.58 7.94ZM21.87 23.35L20.75 24.47L22.77 24.47L22.77 4.79L21.87 4.79L21.87 23.35ZM12.02 7.07C12.02 7.67 11.53 8.17 10.93 8.17C10.32 8.17 9.83 7.67 9.83 7.07C9.83 6.47 10.32 5.97 10.93 5.97C11.53 5.97 12.02 6.47 12.02 7.07ZM10.45 7.07C10.45 7.34 10.66 7.54 10.93 7.54C11.19 7.54 11.4 7.34 11.4 7.07C11.4 6.8 11.19 6.6 10.93 6.6C10.66 6.6 10.45 6.8 10.45 7.07ZM9.67 7.95L9.67 9.28L12.19 9.28L12.19 7.95L12.81 7.95L12.81 9.9L9.04 9.9L9.04 7.95L9.67 7.95ZM15.87 13.73L15.87 14.35L5.98 14.35L5.98 13.73L15.87 13.73ZM15.87 16.17L15.87 16.79L5.98 16.79L5.98 16.17L15.87 16.17ZM15.87 18.61L15.87 19.23L5.98 19.23L5.98 18.61L15.87 18.61ZM15.63 25.55L19.24 21.93L15.63 21.93L15.63 25.55ZM17.19 24.87L17.19 27.15L20.81 23.53L18.53 23.53L17.19 24.87ZM18.71 26.51L18.71 28.72L22.33 25.1L20.13 25.1L18.71 26.51ZM15.44 26.62L3.13 26.62L3.13 27.6L16.56 27.6L16.56 25.5L15.44 26.62ZM17.01 28.22L4.65 28.22L4.65 29.16L18.09 29.16L18.09 27.14L17.01 28.22Z" />
				</g>
			</g>
		</g>
	</g>
</svg>