<svg xmlns="http://www.w3.org/2000/svg" viewBox="0 0 42 35" width="42" height="35">
	<defs>
		<clipPath clipPathUnits="userSpaceOnUse" id="cp1">
			<path d="M-619 -400L821 -400L821 624L-619 624Z" />
		</clipPath>
	</defs>
	<style>
		tspan { white-space:pre }
		.shp0 { fill: #253478 } 
	</style>
	<g id="Page 5 Post grad" clip-path="url(#cp1)">
		<g id="noun_space after_2700178">
			<path id="Path 96" class="shp0" d="M14.61 0.71L14.61 1.98L41.43 1.98L41.43 0.71L14.61 0.71ZM14.61 7.09L14.61 8.37L36.32 8.37L36.32 7.09L14.61 7.09ZM14.61 13.48L14.61 14.75L41.43 14.75L41.43 13.48L14.61 13.48ZM14.61 19.86L14.61 21.14L37.6 21.14L37.6 19.86L14.61 19.86ZM7.4 25.16L6.5 26.06L9.88 29.44L0.57 29.44L0.57 30.72L9.88 30.72L6.5 34.1L7.4 35L11.87 30.53L11.87 29.63L7.4 25.16ZM14.61 26.25L14.61 28.16L15.89 28.16L15.89 27.52L16.53 27.52L16.53 26.25L14.61 26.25ZM17.81 26.25L17.81 27.52L20.36 27.52L20.36 26.25L17.81 26.25ZM21.64 26.25L21.64 27.52L24.19 27.52L24.19 26.25L21.64 26.25ZM25.47 26.25L25.47 27.52L28.02 27.52L28.02 26.25L25.47 26.25ZM29.3 26.25L29.3 27.52L31.85 27.52L31.85 26.25L29.3 26.25ZM33.13 26.25L33.13 27.52L35.69 27.52L35.69 26.25L33.13 26.25ZM36.96 26.25L36.96 27.52L37.6 27.52L37.6 28.16L38.88 28.16L38.88 26.25L36.96 26.25ZM14.61 29.44L14.61 31.36L15.89 31.36L15.89 29.44L14.61 29.44ZM37.6 29.44L37.6 31.36L38.88 31.36L38.88 29.44L37.6 29.44ZM14.61 31.99L14.61 33.91L16.53 33.91L16.53 32.63L15.89 32.63L15.89 31.99L14.61 31.99ZM37.6 31.99L37.6 32.63L36.96 32.63L36.96 33.91L38.88 33.91L38.88 31.99L37.6 31.99ZM17.81 32.63L17.81 33.91L20.36 33.91L20.36 32.63L17.81 32.63ZM21.64 32.63L21.64 33.91L24.19 33.91L24.19 32.63L21.64 32.63ZM25.47 32.63L25.47 33.91L28.02 33.91L28.02 32.63L25.47 32.63ZM29.3 32.63L29.3 33.91L31.85 33.91L31.85 32.63L29.3 32.63ZM33.13 32.63L33.13 33.91L35.69 33.91L35.69 32.63L33.13 32.63Z" />
		</g>
	</g>
</svg>