<svg xmlns="http://www.w3.org/2000/svg" viewBox="0 0 44 42" width="44" height="42">
	<defs>
		<clipPath clipPathUnits="userSpaceOnUse" id="cp1">
			<path d="M-1101 -457L339 -457L339 567L-1101 567Z" />
		</clipPath>
	</defs>
	<style>
		tspan { white-space:pre }
		.shp0 { fill: #1e2e74 } 
	</style>
	<g id="Page2 Key addmission" clip-path="url(#cp1)">
		<g id="Group 17">
			<g id="noun_levels_1647169">
				<path id="Path 55" fill-rule="evenodd" class="shp0" d="M21.89 21.5L0 11.19L21.89 1L43.79 11.23L21.89 21.5ZM5.35 11.23L21.89 18.96L38.44 11.23L21.89 3.49L5.35 11.23ZM35.96 28.11L43.79 31.77L21.89 42L0 31.81L7.83 28.15L8.78 30.2L5.38 31.81L21.89 39.51L38.44 31.77L35.04 30.16L35.96 28.11ZM35.96 17.92L43.79 21.58L21.89 31.8L0 21.6L7.83 17.94L8.78 19.99L5.38 21.6L21.89 29.3L38.44 21.57L35.04 19.96L35.96 17.92Z" />
			</g>
		</g>
	</g>
</svg>