<svg xmlns="http://www.w3.org/2000/svg" viewBox="0 0 30 33" width="30" height="33">
	<defs>
		<clipPath clipPathUnits="userSpaceOnUse" id="cp1">
			<path d="M-601 -814L839 -814L839 210L-601 210Z" />
		</clipPath>
	</defs>
	<style>
		tspan { white-space:pre }
		.shp0 { fill: #1e2e74 } 
	</style>
	<g id="Page1 Overveiw" clip-path="url(#cp1)">
		<g id="noun_student_670917">
			<g id="Group 3">
				<path id="Path 6" class="shp0" d="M0.84 7L1.79 7.41L1.71 8.04C1.35 8.1 1.07 8.42 1.07 8.8C1.07 9.14 1.29 9.43 1.6 9.53L1.03 17.56C1 17.89 1.07 18.43 1.18 18.74L1.64 20.14C1.75 20.46 1.92 20.46 2.03 20.14L2.49 18.74C2.6 18.43 2.67 17.89 2.64 17.56L2.07 9.53C2.38 9.43 2.6 9.14 2.6 8.8C2.6 8.42 2.33 8.1 1.96 8.04L1.89 7.45L4.07 8.4L5.14 8.86L5.14 12.98L5.14 12.98C5.03 13.6 4.95 14.23 4.9 14.8C4.71 15.56 4.61 16.35 4.61 17.16L4.63 17.16C4.63 17.17 4.63 17.17 4.62 17.18C4.61 17.18 4.6 17.18 4.59 17.18C3.89 17.3 3.57 18.81 3.87 20.54C4.16 22.12 4.87 23.35 5.54 23.45C6.38 25.71 7.71 27.91 9.36 29.51C10.29 30.42 11.32 31.14 12.42 31.58C13.18 31.88 13.97 32.05 14.78 32.05C15.59 32.05 16.38 31.88 17.14 31.58C18.28 31.13 19.34 30.37 20.3 29.42C21.91 27.82 23.21 25.65 24.03 23.43C24.66 23.24 25.33 22.05 25.6 20.53C25.89 18.89 25.62 17.45 24.98 17.21C25 16.81 25.02 16.4 25.02 15.99C25.01 14.72 24.84 13.56 24.54 12.49L24.54 8.86L25.61 8.4L28.84 7C29.68 6.63 29.68 6.04 28.84 5.67L16.37 0.27C15.53 -0.09 14.15 -0.09 13.31 0.27L0.84 5.67C0 6.04 0 6.63 0.84 7Z" />
			</g>
		</g>
	</g>
</svg>