<svg xmlns="http://www.w3.org/2000/svg" viewBox="0 0 41 18" width="41" height="18">
	<defs>
		<clipPath clipPathUnits="userSpaceOnUse" id="cp1">
			<path d="M-595 -845L845 -845L845 179L-595 179Z" />
		</clipPath>
	</defs>
	<style>
		tspan { white-space:pre }
		.shp0 { fill: #1e2e74 } 
	</style>
	<g id="Page1 Overveiw" clip-path="url(#cp1)">
		<g id="noun_student_670917">
			<g id="Group 3">
				<path id="Path 5" class="shp0" d="M40.83 9.81C40.01 6.96 38.93 5.12 37.84 3.91C35.92 1.76 33.99 1.59 33.41 1.45C31.62 1.04 29.45 1.21 28.29 0.85C28.16 1.99 24.86 5.72 22.7 8.06L21.76 4.45C22.46 4.03 22.62 3.12 22.62 2.35L19.06 2.35C19.06 3.11 19.22 4.02 19.9 4.44L18.98 8.06C16.82 5.72 13.52 1.99 13.39 0.85C12.23 1.21 10.06 1.04 8.27 1.45C7.67 1.59 5.62 1.78 3.64 4.14C2.63 5.35 1.62 7.13 0.85 9.8C0.64 10.54 0.63 11.3 0.81 12.03C0.89 12.36 0.99 12.69 1.15 12.98C3.02 16.52 12.87 17.62 20.83 17.62C20.83 17.62 20.84 17.62 20.84 17.62C20.84 17.62 20.85 17.62 20.85 17.62C28.81 17.62 38.66 16.53 40.53 12.99C40.68 12.71 40.77 12.42 40.86 12.12C41.05 11.37 41.05 10.57 40.83 9.81Z" />
			</g>
		</g>
	</g>
</svg>