<svg xmlns="http://www.w3.org/2000/svg" viewBox="0 0 40 41" width="40" height="41">
	<defs>
		<clipPath clipPathUnits="userSpaceOnUse" id="cp1">
			<path d="M-592 -686L848 -686L848 338L-592 338Z" />
		</clipPath>
	</defs>
	<style>
		tspan { white-space:pre }
		.shp0 { fill: #1e2e74 } 
	</style>
	<g id="Page1 Overveiw" clip-path="url(#cp1)">
		<g id="Group 13">
			<g id="noun_student_2956856">
				<path id="Path 3" fill-rule="evenodd" class="shp0" d="M39.82 25.02L34.67 40.48C34.6 40.68 34.48 40.81 34.35 40.87C34.15 40.93 34.02 40.93 33.83 40.87C29.39 39.26 24.56 39.26 20.11 40.87C20.05 40.93 19.98 40.93 19.92 40.93C19.85 40.93 19.79 40.87 19.73 40.87C15.28 39.26 10.45 39.26 6.01 40.87C5.81 40.93 5.62 40.93 5.49 40.87C5.36 40.81 5.23 40.68 5.17 40.48L0.02 25.02C-0.05 24.7 0.08 24.38 0.34 24.25C0.47 24.19 0.53 24.19 0.6 24.12L0.02 22.45C-0.05 22.13 0.08 21.8 0.34 21.68C2.66 20.45 5.1 19.68 7.62 19.42C9.29 15.43 12.77 12.66 16.83 11.69C15.28 10.66 14.19 8.86 14.19 6.8C14.19 3.58 16.76 1 19.98 1C23.2 1 25.78 3.58 25.78 6.8C25.78 8.86 24.69 10.66 23.14 11.63C25.52 12.21 27.78 13.43 29.58 15.23C30.74 16.46 31.64 17.81 32.35 19.36C34.93 19.68 37.37 20.45 39.63 21.68C39.95 21.8 40.08 22.13 39.95 22.45L39.37 24.12C39.44 24.19 39.56 24.19 39.63 24.25C39.89 24.38 40.01 24.77 39.82 25.02ZM38.66 22.45C36.54 21.35 34.28 20.71 31.96 20.45C31.26 20.39 30.55 20.32 29.77 20.32C29.32 20.32 28.94 20.39 28.55 20.39C28.42 20.45 28.29 20.45 28.16 20.45C27.91 20.45 27.65 20.52 27.39 20.52C27.2 20.52 27.07 20.58 26.88 20.58C26.62 20.64 26.42 20.64 26.17 20.71C25.97 20.77 25.84 20.77 25.65 20.84C25.46 20.9 25.2 20.9 25.01 20.97C24.81 20.97 24.69 21.03 24.49 21.1C24.23 21.16 24.04 21.22 23.85 21.29C23.65 21.35 23.53 21.42 23.33 21.48C23.14 21.55 22.95 21.61 22.75 21.68C22.56 21.74 22.43 21.8 22.24 21.87C22.04 21.93 21.85 22.06 21.66 22.13C21.46 22.19 21.34 22.32 21.14 22.38C21.01 22.45 20.88 22.51 20.76 22.58L20.76 23.74C20.82 23.67 20.82 23.67 20.88 23.67C21.27 23.48 21.72 23.29 22.17 23.09C22.17 23.09 22.24 23.03 22.3 23.03C22.69 22.9 23.07 22.77 23.46 22.64C23.59 22.58 23.78 22.58 23.98 22.51C24.23 22.45 24.56 22.38 24.81 22.32C25.01 22.26 25.2 22.26 25.39 22.19C25.72 22.13 25.97 22.06 26.3 22C26.42 22 26.62 21.93 26.81 21.93C27.13 21.87 27.52 21.8 27.84 21.8C27.97 21.74 28.1 21.74 28.23 21.74C28.74 21.68 29.19 21.68 29.71 21.68C30.16 21.68 30.68 21.68 31.13 21.74C31.26 21.8 31.38 21.8 31.51 21.8C31.83 21.87 32.16 21.87 32.48 21.93C32.61 22 32.67 22 32.8 22C32.87 22 32.99 22.06 33.06 22.06C33.25 22.13 33.45 22.13 33.64 22.19C33.9 22.26 34.09 22.26 34.35 22.32C34.48 22.38 34.67 22.38 34.8 22.45C35.31 22.58 35.76 22.71 36.21 22.83C36.41 22.9 36.6 22.96 36.79 23.03C36.99 23.09 37.18 23.16 37.37 23.22C37.57 23.29 37.82 23.41 38.02 23.48C38.08 23.48 38.15 23.54 38.21 23.54L38.66 22.45ZM19.98 11.31C22.5 11.31 24.49 9.31 24.49 6.8C24.49 4.28 22.5 2.29 19.98 2.29C17.47 2.29 15.47 4.28 15.47 6.8C15.47 9.31 17.47 11.31 19.98 11.31ZM8.97 19.23C9.36 19.16 9.81 19.16 10.19 19.16C10.64 19.16 11.03 19.23 11.48 19.23C11.67 19.29 11.8 19.29 11.93 19.29C12.19 19.29 12.51 19.29 12.77 19.36C12.96 19.36 13.09 19.42 13.28 19.42C13.54 19.49 13.8 19.49 14.06 19.55C14.19 19.61 14.38 19.61 14.57 19.68C14.83 19.68 15.02 19.74 15.28 19.81C15.47 19.81 15.67 19.87 15.86 19.94C16.12 20 16.38 20.07 16.57 20.13C16.76 20.19 16.96 20.26 17.15 20.32C17.34 20.45 17.6 20.52 17.79 20.58C17.92 20.64 18.12 20.71 18.31 20.77C18.5 20.84 18.76 20.97 18.95 21.03C19.15 21.1 19.27 21.22 19.47 21.29C19.6 21.35 19.79 21.42 19.92 21.48C20.05 21.42 20.24 21.35 20.37 21.29C20.5 21.22 20.69 21.1 20.88 21.03C21.08 20.97 21.34 20.84 21.53 20.77C21.66 20.71 21.85 20.64 22.04 20.58C22.24 20.45 22.5 20.39 22.69 20.32C22.88 20.26 23.07 20.19 23.27 20.13C23.53 20.07 23.72 20 23.98 19.94C24.17 19.94 24.36 19.87 24.56 19.81C24.81 19.74 25.01 19.74 25.26 19.68C25.39 19.61 25.59 19.61 25.78 19.55C26.04 19.49 26.3 19.49 26.55 19.42C26.75 19.42 26.88 19.36 27.07 19.36C27.33 19.36 27.65 19.29 27.91 19.29C28.03 19.23 28.23 19.23 28.36 19.23C28.81 19.16 29.19 19.16 29.64 19.16C30.1 19.16 30.48 19.23 30.87 19.23C30.29 18.13 29.52 17.1 28.61 16.2C26.3 13.88 23.27 12.59 19.98 12.59C15.35 12.59 11.16 15.17 8.97 19.23ZM1.43 22.58L1.76 23.54C1.82 23.54 1.95 23.54 2.01 23.48C2.21 23.41 2.46 23.29 2.66 23.22C2.85 23.09 3.04 23.03 3.24 22.96C3.43 22.96 3.56 22.9 3.69 22.9C4.2 22.71 4.72 22.58 5.23 22.45C5.36 22.45 5.49 22.38 5.62 22.38C5.88 22.32 6.07 22.32 6.33 22.26C6.52 22.19 6.71 22.13 6.91 22.13C6.97 22.13 7.1 22.06 7.17 22.06C7.29 22 7.36 22 7.49 22C7.81 21.93 8.13 21.87 8.45 21.87C8.58 21.8 8.78 21.8 8.9 21.8C9.36 21.74 9.87 21.74 10.32 21.74C10.71 21.74 11.16 21.8 11.55 21.8C11.67 21.87 11.8 21.87 11.93 21.87C12.25 21.87 12.51 21.93 12.77 21.93C12.9 21.93 13.09 22 13.22 22C13.41 22.06 13.67 22.06 13.93 22.13C14.12 22.19 14.25 22.19 14.44 22.26C14.7 22.26 14.89 22.32 15.15 22.38C15.35 22.45 15.47 22.45 15.67 22.51C15.93 22.58 16.12 22.64 16.38 22.71C16.57 22.71 16.7 22.77 16.89 22.83C17.15 22.9 17.34 23.03 17.6 23.09C17.73 23.16 17.92 23.22 18.05 23.29C18.31 23.41 18.5 23.48 18.76 23.61C18.89 23.67 19.08 23.74 19.21 23.8C19.27 23.8 19.27 23.87 19.34 23.87L19.34 22.71C19.21 22.64 19.08 22.58 18.95 22.51C18.76 22.38 18.63 22.32 18.44 22.26C18.24 22.13 18.05 22.06 17.86 22C17.66 21.93 17.54 21.87 17.34 21.8C17.15 21.74 16.96 21.68 16.76 21.61C16.57 21.55 16.44 21.48 16.25 21.42C15.99 21.35 15.8 21.29 15.6 21.22C15.41 21.16 15.28 21.16 15.09 21.1C14.89 21.03 14.64 21.03 14.44 20.97C14.25 20.9 14.12 20.84 13.93 20.84C13.67 20.77 13.48 20.77 13.22 20.71C13.03 20.71 12.9 20.64 12.7 20.64C12.45 20.64 12.19 20.58 11.93 20.58C11.8 20.52 11.67 20.52 11.55 20.52C11.09 20.45 10.71 20.45 10.32 20.45C9.55 20.45 8.84 20.52 8.13 20.58C5.81 20.84 3.56 21.55 1.43 22.58ZM19.47 39.32L19.47 25.15C19.34 25.09 19.21 25.02 19.08 24.96C18.89 24.83 18.76 24.77 18.57 24.7C18.37 24.57 18.18 24.51 17.99 24.45C17.79 24.38 17.66 24.32 17.47 24.25C17.28 24.19 17.08 24.12 16.89 24.06C16.7 23.99 16.57 23.93 16.38 23.87C16.12 23.8 15.93 23.74 15.73 23.67C15.54 23.61 15.41 23.61 15.22 23.54C15.02 23.48 14.77 23.48 14.57 23.41C14.38 23.35 14.25 23.29 14.06 23.29C13.8 23.22 13.61 23.22 13.35 23.16C13.16 23.16 13.03 23.09 12.83 23.09C12.58 23.09 12.32 23.03 12.06 23.03C11.93 22.96 11.8 22.96 11.67 22.96C11.22 22.9 10.84 22.9 10.45 22.9C10 22.9 9.55 22.96 9.1 22.96C8.97 23.03 8.84 23.03 8.71 23.03C8.39 23.09 8.13 23.09 7.81 23.16C7.68 23.16 7.49 23.22 7.29 23.22C6.97 23.29 6.65 23.35 6.39 23.41C6.14 23.48 5.88 23.54 5.62 23.61C5.36 23.74 5.04 23.8 4.78 23.87C4.59 23.93 4.4 23.99 4.2 24.06C3.95 24.12 3.69 24.25 3.43 24.32C3.24 24.38 3.11 24.45 2.91 24.51C2.46 24.64 2.08 24.83 1.69 25.02C1.56 25.09 1.5 25.09 1.43 25.15L6.2 39.45C10.45 38.1 15.09 38.04 19.47 39.32ZM38.66 25.09C38.53 25.02 38.47 25.02 38.4 24.96C38.02 24.77 37.57 24.64 37.18 24.45C37.05 24.38 36.86 24.32 36.73 24.25C36.47 24.19 36.21 24.06 35.96 23.99C35.83 23.93 35.64 23.87 35.44 23.8C35.12 23.67 34.86 23.61 34.54 23.54C34.28 23.54 34.09 23.48 33.83 23.41C33.51 23.35 33.25 23.29 32.93 23.22C32.74 23.22 32.61 23.16 32.41 23.16C32.03 23.09 31.64 23.03 31.26 23.03C31.19 23.03 31.06 23.03 31 23.03C30.48 22.96 30.03 22.96 29.52 22.96C29.39 22.96 29.32 22.96 29.26 22.96C28.81 22.96 28.42 22.96 28.03 23.03C27.91 23.09 27.78 23.09 27.65 23.09C27.26 23.09 26.88 23.16 26.49 23.22C26.42 23.29 26.3 23.29 26.23 23.29C25.78 23.35 25.33 23.41 24.88 23.54C24.69 23.61 24.56 23.61 24.36 23.67C24.04 23.74 23.72 23.87 23.46 23.93C23.27 23.99 23.14 24.06 22.95 24.12C22.62 24.25 22.24 24.45 21.85 24.57C21.79 24.57 21.72 24.64 21.66 24.64C21.34 24.83 20.95 24.96 20.63 25.15L20.63 39.32C22.69 38.68 24.88 38.36 27.07 38.36C29.32 38.36 31.58 38.74 33.77 39.45L38.66 25.09Z" />
			</g>
		</g>
	</g>
</svg>