<svg xmlns="http://www.w3.org/2000/svg" viewBox="0 0 41 35" width="41" height="35">
	<defs>
		<clipPath clipPathUnits="userSpaceOnUse" id="cp1">
			<path d="M-701 -453L739 -453L739 571L-701 571Z" />
		</clipPath>
	</defs>
	<style>
		tspan { white-space:pre }
		.shp0 { fill: #1e2e74 } 
	</style>
	<g id="Page2 Key addmission" clip-path="url(#cp1)">
		<g id="Group 16">
			<g id="noun_School_1691972">
				<path id="Path 12" class="shp0" d="M20.85 18.83L20.85 17.1C20.85 16.9 20.69 16.73 20.49 16.73C20.29 16.73 20.13 16.9 20.13 17.1L20.13 19.2C20.13 19.4 20.29 19.56 20.49 19.56L22.41 19.56C22.62 19.56 22.78 19.4 22.78 19.2C22.78 19 22.62 18.83 22.41 18.83L20.85 18.83Z" />
				<path id="Path 13" fill-rule="evenodd" class="shp0" d="M40.98 18.43L40.98 34.15C40.98 34.59 40.76 34.81 40.32 34.81L24 34.81C23.85 34.81 23.78 34.73 23.78 34.58L23.78 29.61C23.78 27.85 22.43 26.52 20.49 26.52C18.55 26.52 17.2 27.85 17.2 29.61L17.2 34.58C17.2 34.73 17.13 34.81 16.97 34.81L0.66 34.81C0.22 34.81 0 34.59 0 34.15L0 18.43C0 18.19 0.09 18.1 0.33 18.1L12.96 18.1L20.49 11.27L28.02 18.1L40.65 18.1C40.89 18.1 40.98 18.19 40.98 18.43ZM7.2 27.47C7.2 27.3 7.11 27.21 6.93 27.21L3.48 27.21C3.3 27.21 3.21 27.3 3.21 27.47L3.21 30.96C3.21 31.13 3.3 31.22 3.48 31.22L6.93 31.22C7.11 31.22 7.2 31.13 7.2 30.96L7.2 27.47ZM7.2 21.03C7.2 20.85 7.11 20.76 6.93 20.76L3.48 20.76C3.3 20.76 3.21 20.85 3.21 21.03L3.21 24.51C3.21 24.69 3.3 24.78 3.48 24.78L6.93 24.78C7.11 24.78 7.2 24.69 7.2 24.51L7.2 21.03ZM13.81 27.47C13.81 27.3 13.72 27.21 13.55 27.21L10.09 27.21C9.91 27.21 9.82 27.3 9.82 27.47L9.82 30.96C9.82 31.13 9.91 31.22 10.09 31.22L13.55 31.22C13.72 31.22 13.81 31.13 13.81 30.96L13.81 27.47ZM13.81 21.03C13.81 20.85 13.72 20.76 13.55 20.76L10.09 20.76C9.91 20.76 9.82 20.85 9.82 21.03L9.82 24.51C9.82 24.69 9.91 24.78 10.09 24.78L13.55 24.78C13.72 24.78 13.81 24.69 13.81 24.51L13.81 21.03ZM23.4 19.2C23.4 17.59 22.1 16.29 20.49 16.29C18.88 16.29 17.58 17.59 17.58 19.2C17.58 20.8 18.88 22.1 20.49 22.1C22.1 22.1 23.4 20.8 23.4 19.2ZM31.16 27.47C31.16 27.3 31.07 27.21 30.89 27.21L27.43 27.21C27.26 27.21 27.17 27.3 27.17 27.47L27.17 30.96C27.17 31.13 27.26 31.22 27.43 31.22L30.89 31.22C31.07 31.22 31.16 31.13 31.16 30.96L31.16 27.47ZM31.16 21.03C31.16 20.85 31.07 20.76 30.89 20.76L27.43 20.76C27.26 20.76 27.17 20.85 27.17 21.03L27.17 24.51C27.17 24.69 27.26 24.78 27.43 24.78L30.89 24.78C31.07 24.78 31.16 24.69 31.16 24.51L31.16 21.03ZM37.77 27.47C37.77 27.3 37.68 27.21 37.5 27.21L34.05 27.21C33.87 27.21 33.78 27.3 33.78 27.47L33.78 30.96C33.78 31.13 33.87 31.22 34.05 31.22L37.5 31.22C37.68 31.22 37.77 31.13 37.77 30.96L37.77 27.47ZM37.77 21.03C37.77 20.85 37.68 20.76 37.5 20.76L34.05 20.76C33.87 20.76 33.78 20.85 33.78 21.03L33.78 24.51C33.78 24.69 33.87 24.78 34.05 24.78L37.5 24.78C37.68 24.78 37.77 24.69 37.77 24.51L37.77 21.03Z" />
				<path id="Path 14" class="shp0" d="M21.82 5.32C23.97 4.01 25.71 5.95 27.95 4.72C28.02 4.68 28.07 4.61 28.07 4.5L28.07 0.13C28.07 0.01 27.99 -0.03 27.88 0.02C25.66 1.2 23.92 -0.74 21.76 0.63C21.69 0.67 21.64 0.74 21.64 0.85L21.64 5.22C21.64 5.34 21.71 5.38 21.82 5.32Z" />
				<path id="Path 15" class="shp0" d="M40.74 14.79L36.59 11.03C36.24 10.71 35.92 10.58 35.44 10.58L25.19 10.58L20.99 6.78L20.99 0.57C20.99 0.29 20.77 0.07 20.49 0.07C20.21 0.07 19.99 0.29 19.99 0.57L19.99 6.78L15.79 10.58L5.54 10.58C5.06 10.58 4.74 10.71 4.39 11.02L0.24 14.79C0.07 14.94 0 15.1 0 15.33L0 16.06C0 16.29 0.09 16.39 0.33 16.39L12.33 16.39L20.49 8.99L28.65 16.39L40.65 16.39C40.89 16.39 40.98 16.3 40.98 16.06L40.98 15.34C40.98 15.1 40.91 14.95 40.74 14.79Z" />
			</g>
		</g>
	</g>
</svg>